<svg width="151" height="55" fill="none" xmlns="http://www.w3.org/2000/svg"><path d="M24.904 52.15H3.624c-1.54 0-2.44-1.37-2.44-2.57 0-.71.29-1.36.75-1.82l9.29-9.29 13.68 13.68z" fill="#fff"/><path d="M3.623 52.15c-1.61 0-3.62-1.28-3.62-3.84V19.7c0-3.87-.2-6.58 2.56-9.35L12.923 0l18.37 18.4-29.36 29.35c-.47.47-.75 1.11-.75 1.82 0 1.2.9 2.58 2.44 2.58zm36.091-.03c-2.22 0-3.86-1.57-3.86-3.92 0-2.35 1.7-3.92 3.91-3.92 1.57 0 2.71.83 3.25 1.84l-1.2.72c-.46-.78-1.09-1.25-2.1-1.25-1.33 0-2.42 1-2.42 2.61 0 1.55 1.08 2.61 2.42 2.61.95 0 1.65-.42 2.2-1.21l1.2.68c-.86 1.25-1.75 1.84-3.4 1.84zm6.93 0c-1.47 0-2.92-.95-2.92-2.82 0-1.87 1.45-2.82 2.92-2.82s2.92.95 2.92 2.82c0 1.88-1.46 2.82-2.92 2.82zm1.54-2.82c0-.98-.74-1.55-1.54-1.55s-1.54.57-1.54 1.55c0 .98.74 1.55 1.54 1.55.79 0 1.54-.57 1.54-1.55zm1.83 2.67v-1.2s.14.06.38.06c.33 0 .5-.23.55-1.19l.17-3.03h4.2v5.34h-1.36v-4.12h-1.66l-.1 1.85c-.08 1.54-.51 2.34-1.71 2.34-.25.03-.47-.05-.47-.05zm9.87-.85c-.38.67-1.02 1-1.79 1-1.06 0-1.8-.66-1.8-1.67 0-1.09.82-1.58 1.91-1.73l1.61-.22v-.27c0-.52-.32-.81-1-.81-.59 0-.94.27-.94.6 0 .04 0 .11.01.15l-1.28.14c-.02-.1-.02-.2-.02-.28 0-.83.83-1.56 2.23-1.56 1.5 0 2.36.64 2.36 1.94v2.23c0 .58.05.96.17 1.33h-1.35c-.06-.21-.11-.5-.11-.85zm-.08-1.58v-.1l-1.29.18c-.58.09-.89.3-.89.75 0 .43.34.65.76.65.79 0 1.42-.45 1.42-1.48zm3.89-2.91v.76c.36-.52 1.05-.92 1.85-.92 1.34 0 2.46 1.04 2.46 2.82 0 1.71-1.15 2.82-2.57 2.82-.75 0-1.35-.32-1.73-.81v2.86h-1.36v-7.54h1.35v.01zm-.08 2.67c0 .87.64 1.55 1.51 1.55s1.51-.68 1.51-1.55-.64-1.55-1.51-1.55c-.88 0-1.51.68-1.51 1.55zm61.859-20.26h-3.08l-3.67 3.71v-3.71h-2.61v10.24h2.61v-4.24l3.73 4.24h3.14l-4.83-5.5 4.71-4.74zm-82.469-4.22h-6.57v14.45h2.73v-5.04h3.84c3.26 0 5.41-1.67 5.41-4.71s-2.15-4.7-5.41-4.7zm-.08 6.98h-3.76v-4.54h3.76c1.9 0 2.77.91 2.77 2.27 0 1.36-.87 2.27-2.77 2.27zm11.64-3.05c-2.81 0-5.59 1.82-5.59 5.41s2.79 5.41 5.59 5.41c2.81 0 5.59-1.82 5.59-5.41.01-3.6-2.78-5.41-5.59-5.41zm0 8.38c-1.53 0-2.95-1.09-2.95-2.97 0-1.88 1.42-2.97 2.95-2.97 1.53 0 2.95 1.09 2.95 2.97 0 1.87-1.42 2.97-2.95 2.97zm12.24 0c-1.57 0-2.73-1.14-2.73-2.97 0-1.82 1.2-2.97 2.73-2.97.93 0 1.73.43 2.37 1.4l2.23-1.28c-.74-1.59-2.35-2.56-4.58-2.56-2.91 0-5.39 2.15-5.39 5.41 0 3.26 2.35 5.41 5.39 5.41 2.19 0 3.65-.99 4.69-2.75l-2.15-1.18c-.62.87-1.28 1.49-2.56 1.49zm27.689-2.29c-.12 1.57-.43 1.92-.97 1.92-.37 0-.54-.04-.79-.11l.01 2.65s.32.1.92.1c2.21 0 3.03-1.42 3.24-4.46l.25-3.57h2.93v7.89h2.6V29.04h-7.76l-.43 5.8zm-7.37-6.09c-2.97 0-5.39 2.17-5.39 5.41s2.42 5.41 5.26 5.41c2.25 0 3.67-.85 4.71-2.6l-2.06-1.03c-.64.81-1.22 1.4-2.6 1.4-1.53 0-2.64-.99-2.81-2.56h7.89v-.91c-.01-3-2.07-5.12-5-5.12zm-2.85 4.04c.37-1.16 1.4-2.06 2.77-2.06 1.45 0 2.42.78 2.66 2.06h-5.43zm25.27-4.04c-2.97 0-5.39 2.17-5.39 5.41s2.42 5.41 5.26 5.41c2.25 0 3.67-.85 4.71-2.6l-2.06-1.03c-.64.81-1.22 1.4-2.6 1.4-1.53 0-2.64-.99-2.81-2.56h7.89v-.91c-.01-3-2.07-5.12-5-5.12zm-2.85 4.04c.37-1.16 1.4-2.06 2.77-2.06 1.45 0 2.42.78 2.66 2.06h-5.43zm-34.379-1.48h3.06v7.97h2.6v-7.97h3.06v-2.27h-8.72v2.27z" fill="#fff"/><path d="M130.754 28.75c-2.81 0-5.59 1.82-5.59 5.41s2.79 5.41 5.59 5.41c2.81 0 5.59-1.82 5.59-5.41.01-3.6-2.78-5.41-5.59-5.41zm0 8.38c-1.53 0-2.95-1.09-2.95-2.97 0-1.88 1.42-2.97 2.95-2.97 1.53 0 2.95 1.09 2.95 2.97.01 1.87-1.42 2.97-2.95 2.97zm15.949-8.1l-2.82 7.18-2.83-7.18h-3.4v10.23h2.48v-6.48l2.74 6.48h2.02l2.74-6.48v6.48h2.47V29.03h-3.4z" fill="#fff"/></svg>