<svg width="236" height="86" fill="none" xmlns="http://www.w3.org/2000/svg" id="preloader"><mask id="path-1-outside-1" maskUnits="userSpaceOnUse" x="0" y="0" width="236" height="86" fill="#000"><path fill="#fff" d="M0 0h236v86H0z" class="lcTgdERq_0"/><path d="M51.847 59.357c0 3.409-.66 6.6-1.982 9.575a23.932 23.932 0 0 1-5.287 7.81c-2.266 2.23-4.91 3.997-7.93 5.298-3.021 1.24-6.263 1.86-9.724 1.86-3.462 0-6.703-.62-9.724-1.86-3.021-1.301-5.665-3.068-7.93-5.299-2.266-2.23-4.06-4.834-5.382-7.809C2.63 65.958 2 62.766 2 59.357c0-3.408.63-6.6 1.888-9.575 1.322-2.974 3.116-5.577 5.381-7.808 2.266-2.231 4.91-3.967 7.93-5.206 3.022-1.302 6.263-1.953 9.725-1.953 2.895 0 5.601.465 8.119 1.395a24.88 24.88 0 0 1 7.08 3.718V2h9.724v57.357zM26.924 74.324c2.077 0 4.028-.372 5.853-1.115 1.888-.806 3.525-1.89 4.91-3.254a14.438 14.438 0 0 0 3.21-4.741 14.384 14.384 0 0 0 1.227-5.857v-.093c0-2.045-.41-3.966-1.228-5.763a14.437 14.437 0 0 0-3.21-4.741c-1.384-1.364-3.02-2.417-4.909-3.16-1.825-.807-3.776-1.21-5.853-1.21a15 15 0 0 0-5.948 1.21 14.694 14.694 0 0 0-4.815 3.16c-1.384 1.363-2.486 2.974-3.304 4.834-.818 1.797-1.227 3.718-1.227 5.763 0 2.046.409 3.998 1.227 5.857a15.752 15.752 0 0 0 3.304 4.741 16.013 16.013 0 0 0 4.815 3.254 16.084 16.084 0 0 0 5.948 1.115z" class="lcTgdERq_1"/><path d="M81.449 62.518a16.28 16.28 0 0 0 1.888 4.741 16.074 16.074 0 0 0 3.399 3.719 16.366 16.366 0 0 0 4.437 2.51c1.636.557 3.367.836 5.192.836 2.203 0 4.249-.434 6.137-1.301a15.56 15.56 0 0 0 5.098-3.626h11.423c-.377.93-.849 1.828-1.416 2.696a28.236 28.236 0 0 1-1.699 2.417c-2.266 2.851-5.098 5.144-8.497 6.88-3.399 1.673-7.081 2.51-11.046 2.51-3.461 0-6.703-.62-9.724-1.86-3.02-1.301-5.664-3.068-7.93-5.299-2.266-2.23-4.06-4.834-5.381-7.809-1.259-2.974-1.888-6.166-1.888-9.575 0-3.408.629-6.6 1.888-9.575 1.322-2.974 3.115-5.577 5.381-7.808s4.91-3.967 7.93-5.206c3.021-1.302 6.263-1.953 9.724-1.953 3.965 0 7.647.868 11.046 2.603 3.399 1.674 6.231 3.967 8.497 6.88 2.077 2.479 3.587 5.391 4.531 8.738.567 1.983.85 4.09.85 6.321 0 1.116-.094 2.17-.283 3.161H81.449zm14.916-18.127c-3.084 0-5.853.805-8.308 2.417-2.391 1.549-4.216 3.625-5.475 6.228h27.567l-.944-1.487a10.351 10.351 0 0 0-.85-1.395 15.006 15.006 0 0 0-5.287-4.183c-2.077-1.054-4.311-1.58-6.703-1.58z" class="lcTgdERq_2"/><path d="M184.122 34.908v27.796c0 3.718-.881 7.127-2.643 10.226a20.727 20.727 0 0 1-6.987 7.53 23.41 23.41 0 0 1-5.664 2.603 21.38 21.38 0 0 1-6.325.93c-2.203 0-4.312-.31-6.326-.93a23.41 23.41 0 0 1-5.664-2.603c-2.895-1.921-5.224-4.431-6.986-7.53-1.763-3.099-2.644-6.508-2.644-10.226V34.908h9.63v27.796c0 1.611.315 3.13.944 4.555a11.91 11.91 0 0 0 2.549 3.719 12.128 12.128 0 0 0 3.776 2.51c1.511.62 3.084.93 4.721.93 1.636 0 3.178-.31 4.626-.93a12.128 12.128 0 0 0 3.776-2.51 11.196 11.196 0 0 0 2.643-3.719 11.14 11.14 0 0 0 .944-4.555V34.908h9.63z" class="lcTgdERq_3"/><path d="M231.252 61.124a15.728 15.728 0 0 1 2.077 4.09c.503 1.425.723 2.944.661 4.555-.063 2.045-.535 3.935-1.417 5.67a15.519 15.519 0 0 1-3.493 4.556c-1.447 1.301-3.147 2.324-5.098 3.068a16.954 16.954 0 0 1-6.136.93c-3.021-.125-5.759-.9-8.214-2.325-2.391-1.425-4.217-3.315-5.475-5.67l8.119-5.578c.314 1.115 1.007 2.076 2.077 2.882 1.07.743 2.328 1.115 3.776 1.115 1.636.062 3.052-.372 4.248-1.301 1.259-.992 1.888-2.2 1.888-3.626 0-.434-.031-.743-.094-.93v-.185a.703.703 0 0 1-.094-.28.815.815 0 0 0-.095-.371c-.44-1.054-1.259-1.921-2.454-2.603-.189-.124-.472-.248-.85-.372l.094-.093a25.507 25.507 0 0 0-2.926-1.394c-1.07-.496-2.172-.992-3.305-1.488l-3.209-1.673a20.385 20.385 0 0 1-3.021-2.138v-.093l-.284-.279a13.92 13.92 0 0 1-3.115-4.276 11.748 11.748 0 0 1-1.039-5.299c.063-1.86.504-3.594 1.322-5.206a14.083 14.083 0 0 1 3.21-4.183c1.385-1.178 2.989-2.107 4.815-2.789 1.825-.682 3.776-.992 5.853-.93 2.706.124 5.13.775 7.269 1.953 2.203 1.177 3.934 2.758 5.193 4.74l-7.93 5.392c-.378-.681-1.007-1.27-1.889-1.766-.818-.496-1.762-.743-2.832-.743-1.447-.063-2.706.278-3.776 1.022-1.007.744-1.511 1.642-1.511 2.696 0 .31.032.527.095.65.126.682.44 1.271.944 1.767.503.496 1.133.899 1.888 1.209a76.177 76.177 0 0 0 4.06 2.138 55.463 55.463 0 0 1 4.72 2.324c1.133.495 2.266 1.208 3.399 2.138l.472.465c.629.557 1.321 1.301 2.077 2.23z" class="lcTgdERq_4"/></mask><path d="M51.847 59.357c0 3.409-.66 6.6-1.982 9.575a23.932 23.932 0 0 1-5.287 7.81c-2.266 2.23-4.91 3.997-7.93 5.298-3.021 1.24-6.263 1.86-9.724 1.86-3.462 0-6.703-.62-9.724-1.86-3.021-1.301-5.665-3.068-7.93-5.299-2.266-2.23-4.06-4.834-5.382-7.809C2.63 65.958 2 62.766 2 59.357c0-3.408.63-6.6 1.888-9.575 1.322-2.974 3.116-5.577 5.381-7.808 2.266-2.231 4.91-3.967 7.93-5.206 3.022-1.302 6.263-1.953 9.725-1.953 2.895 0 5.601.465 8.119 1.395a24.88 24.88 0 0 1 7.08 3.718V2h9.724v57.357zM26.924 74.324c2.077 0 4.028-.372 5.853-1.115 1.888-.806 3.525-1.89 4.91-3.254a14.438 14.438 0 0 0 3.21-4.741 14.384 14.384 0 0 0 1.227-5.857v-.093c0-2.045-.41-3.966-1.228-5.763a14.437 14.437 0 0 0-3.21-4.741c-1.384-1.364-3.02-2.417-4.909-3.16-1.825-.807-3.776-1.21-5.853-1.21a15 15 0 0 0-5.948 1.21 14.694 14.694 0 0 0-4.815 3.16c-1.384 1.363-2.486 2.974-3.304 4.834-.818 1.797-1.227 3.718-1.227 5.763 0 2.046.409 3.998 1.227 5.857a15.752 15.752 0 0 0 3.304 4.741 16.013 16.013 0 0 0 4.815 3.254 16.084 16.084 0 0 0 5.948 1.115z" stroke="#fff" stroke-width="4" mask="url(#path-1-outside-1)" class="logo-path lcTgdERq_5"/><path d="M81.449 62.518a16.28 16.28 0 0 0 1.888 4.741 16.074 16.074 0 0 0 3.399 3.719 16.366 16.366 0 0 0 4.437 2.51c1.636.557 3.367.836 5.192.836 2.203 0 4.249-.434 6.137-1.301a15.56 15.56 0 0 0 5.098-3.626h11.423c-.377.93-.849 1.828-1.416 2.696a28.236 28.236 0 0 1-1.699 2.417c-2.266 2.851-5.098 5.144-8.497 6.88-3.399 1.673-7.081 2.51-11.046 2.51-3.461 0-6.703-.62-9.724-1.86-3.02-1.301-5.664-3.068-7.93-5.299-2.266-2.23-4.06-4.834-5.381-7.809-1.259-2.974-1.888-6.166-1.888-9.575 0-3.408.629-6.6 1.888-9.575 1.322-2.974 3.115-5.577 5.381-7.808s4.91-3.967 7.93-5.206c3.021-1.302 6.263-1.953 9.724-1.953 3.965 0 7.647.868 11.046 2.603 3.399 1.674 6.231 3.967 8.497 6.88 2.077 2.479 3.587 5.391 4.531 8.738.567 1.983.85 4.09.85 6.321 0 1.116-.094 2.17-.283 3.161H81.449zm14.916-18.127c-3.084 0-5.853.805-8.308 2.417-2.391 1.549-4.216 3.625-5.475 6.228h27.567l-.944-1.487a10.351 10.351 0 0 0-.85-1.395 15.006 15.006 0 0 0-5.287-4.183c-2.077-1.054-4.311-1.58-6.703-1.58z" stroke="#fff" stroke-width="4" mask="url(#path-1-outside-1)" class="logo-path lcTgdERq_6"/><path d="M184.122 34.908v27.796c0 3.718-.881 7.127-2.643 10.226a20.727 20.727 0 0 1-6.987 7.53 23.41 23.41 0 0 1-5.664 2.603 21.38 21.38 0 0 1-6.325.93c-2.203 0-4.312-.31-6.326-.93a23.41 23.41 0 0 1-5.664-2.603c-2.895-1.921-5.224-4.431-6.986-7.53-1.763-3.099-2.644-6.508-2.644-10.226V34.908h9.63v27.796c0 1.611.315 3.13.944 4.555a11.91 11.91 0 0 0 2.549 3.719 12.128 12.128 0 0 0 3.776 2.51c1.511.62 3.084.93 4.721.93 1.636 0 3.178-.31 4.626-.93a12.128 12.128 0 0 0 3.776-2.51 11.196 11.196 0 0 0 2.643-3.719 11.14 11.14 0 0 0 .944-4.555V34.908h9.63z" stroke="#fff" stroke-width="4" mask="url(#path-1-outside-1)" class="logo-path lcTgdERq_7"/><path d="M231.252 61.124a15.728 15.728 0 0 1 2.077 4.09c.503 1.425.723 2.944.661 4.555-.063 2.045-.535 3.935-1.417 5.67a15.519 15.519 0 0 1-3.493 4.556c-1.447 1.301-3.147 2.324-5.098 3.068a16.954 16.954 0 0 1-6.136.93c-3.021-.125-5.759-.9-8.214-2.325-2.391-1.425-4.217-3.315-5.475-5.67l8.119-5.578c.314 1.115 1.007 2.076 2.077 2.882 1.07.743 2.328 1.115 3.776 1.115 1.636.062 3.052-.372 4.248-1.301 1.259-.992 1.888-2.2 1.888-3.626 0-.434-.031-.743-.094-.93v-.185a.703.703 0 0 1-.094-.28.815.815 0 0 0-.095-.371c-.44-1.054-1.259-1.921-2.454-2.603-.189-.124-.472-.248-.85-.372l.094-.093a25.507 25.507 0 0 0-2.926-1.394c-1.07-.496-2.172-.992-3.305-1.488l-3.209-1.673a20.385 20.385 0 0 1-3.021-2.138v-.093l-.284-.279a13.92 13.92 0 0 1-3.115-4.276 11.748 11.748 0 0 1-1.039-5.299c.063-1.86.504-3.594 1.322-5.206a14.083 14.083 0 0 1 3.21-4.183c1.385-1.178 2.989-2.107 4.815-2.789 1.825-.682 3.776-.992 5.853-.93 2.706.124 5.13.775 7.269 1.953 2.203 1.177 3.934 2.758 5.193 4.74l-7.93 5.392c-.378-.681-1.007-1.27-1.889-1.766-.818-.496-1.762-.743-2.832-.743-1.447-.063-2.706.278-3.776 1.022-1.007.744-1.511 1.642-1.511 2.696 0 .31.032.527.095.65.126.682.44 1.271.944 1.767.503.496 1.133.899 1.888 1.209a76.177 76.177 0 0 0 4.06 2.138 55.463 55.463 0 0 1 4.72 2.324c1.133.495 2.266 1.208 3.399 2.138l.472.465c.629.557 1.321 1.301 2.077 2.23z" stroke="#fff" stroke-width="4" mask="url(#path-1-outside-1)" class="logo-path lcTgdERq_8"/><style data-made-with="vivus-instant">.lcTgdERq_0{stroke-dasharray:644 646;stroke-dashoffset:645}.lcTgdERq_0,.lcTgdERq_1,.lcTgdERq_2,.lcTgdERq_3{animation:lcTgdERq_draw 2500ms ease 0ms forwards}.lcTgdERq_1{stroke-dasharray:333 335;stroke-dashoffset:334}.lcTgdERq_2{stroke-dasharray:295 297;stroke-dashoffset:296}.lcTgdERq_3{stroke-dasharray:236 238;stroke-dashoffset:237}.lcTgdERq_4{stroke-dasharray:190 192;stroke-dashoffset:191}.lcTgdERq_4,.lcTgdERq_5,.lcTgdERq_6,.lcTgdERq_7,.lcTgdERq_8{animation:lcTgdERq_draw 2500ms ease 0ms forwards}.lcTgdERq_5{stroke-dasharray:333 335;stroke-dashoffset:334}.lcTgdERq_6{stroke-dasharray:295 297;stroke-dashoffset:296}.lcTgdERq_7{stroke-dasharray:236 238;stroke-dashoffset:237}.lcTgdERq_8{stroke-dasharray:190 192;stroke-dashoffset:191}@keyframes lcTgdERq_draw{to{stroke-dashoffset:0}}@keyframes lcTgdERq_fade{0%,94.02985074626866%{stroke-opacity:1}to{stroke-opacity:0}}</style></svg>