<svg width="118" height="14" fill="none" xmlns="http://www.w3.org/2000/svg"><path d="M6.888 0c-1.05 0-2.01.18-2.856.535a6.422 6.422 0 0 0-2.173 1.47A6.481 6.481 0 0 0 .481 4.21 7.685 7.685 0 0 0 0 6.946c0 .927.153 1.795.453 2.58a5.95 5.95 0 0 0 1.29 2.046 5.917 5.917 0 0 0 2.023 1.348c.786.32 1.672.484 2.634.484 1.342 0 2.555-.237 3.604-.704l.069-.03v-1.421l-.178.093c-.96.504-2.087.759-3.354.759-.822 0-1.553-.14-2.17-.415a4.496 4.496 0 0 1-1.558-1.125 4.842 4.842 0 0 1-.948-1.663 6.375 6.375 0 0 1-.322-2.04c0-.8.12-1.55.36-2.225a5.107 5.107 0 0 1 1.035-1.756 4.707 4.707 0 0 1 1.664-1.156c.656-.277 1.419-.416 2.267-.416 1.07 0 2.089.226 3.03.672l.174.081V.534L9.997.505C9.087.17 8.04 0 6.887 0zm12.657 7.808a5.77 5.77 0 0 0-1.067-.863c-.42-.27-.919-.551-1.483-.837-.533-.27-.99-.512-1.359-.72a4.646 4.646 0 0 1-.876-.62 1.934 1.934 0 0 1-.47-.641 2.062 2.062 0 0 1-.146-.814c0-.33.072-.62.214-.865a1.89 1.89 0 0 1 .592-.624c.253-.17.553-.3.89-.387.343-.09.712-.134 1.099-.134 1.042 0 1.962.213 2.734.634l.18.098V.456l-.076-.03C19.054.144 18.147 0 17.08 0c-.609 0-1.19.08-1.727.237a4.55 4.55 0 0 0-1.42.68 3.43 3.43 0 0 0-.97 1.08c-.24.424-.361.908-.361 1.44 0 .42.064.8.19 1.131.127.332.327.646.595.93.265.281.61.56 1.025.828.411.263.911.548 1.486.844.514.271.967.517 1.347.731.371.212.682.427.926.638.236.21.412.435.525.67.11.237.167.518.167.838 0 .667-.233 1.165-.712 1.517-.483.356-1.228.536-2.214.536a5.33 5.33 0 0 1-.806-.065 6.18 6.18 0 0 1-1.657-.505 4.769 4.769 0 0 1-.727-.42l-.192-.137v1.677l.056.034c.177.105.408.203.687.292a9.294 9.294 0 0 0 2.545.419c.658 0 1.27-.074 1.822-.219a4.452 4.452 0 0 0 1.446-.649 3.04 3.04 0 0 0 .955-1.094c.226-.436.34-.95.34-1.52a2.92 2.92 0 0 0-.215-1.14 3.22 3.22 0 0 0-.645-.965zm10.892.967a3.218 3.218 0 0 0-.645-.967 5.74 5.74 0 0 0-1.067-.864 17.23 17.23 0 0 0-1.483-.836c-.533-.27-.99-.513-1.359-.721a4.65 4.65 0 0 1-.876-.619 1.937 1.937 0 0 1-.47-.641 2.06 2.06 0 0 1-.146-.815c0-.328.072-.618.214-.864.144-.248.344-.458.592-.624.253-.17.553-.3.89-.388a4.424 4.424 0 0 1 1.099-.133c1.042 0 1.962.213 2.734.634l.18.097V.456l-.076-.03C29.302.144 28.395 0 27.328 0c-.61 0-1.19.08-1.728.237a4.55 4.55 0 0 0-1.42.68 3.428 3.428 0 0 0-.97 1.08c-.24.424-.361.908-.361 1.44 0 .42.064.8.19 1.131.127.332.327.646.596.93.263.281.609.56 1.024.828.411.264.911.548 1.486.844.514.271.967.517 1.347.731.371.212.682.427.926.639.236.208.412.434.525.669.11.237.167.518.167.838 0 .667-.233 1.165-.712 1.517-.483.356-1.228.536-2.214.536a5.34 5.34 0 0 1-.806-.065 6.173 6.173 0 0 1-1.657-.505 4.76 4.76 0 0 1-.727-.42l-.192-.137v1.677l.056.034c.177.105.408.203.688.292a9.298 9.298 0 0 0 2.545.419c.657 0 1.27-.074 1.82-.219a4.453 4.453 0 0 0 1.448-.649c.407-.289.727-.655.954-1.094.226-.436.34-.949.34-1.52 0-.414-.071-.798-.215-1.138zM58.634.218h-1.487v12.968h1.487V.218zM87.83 10.83C87.818 10.812 79.165.217 79.165.217h-1.56v12.968h1.486s-.004-10.507-.012-10.698l8.764 10.698h1.476V.218h-1.496s0 10.528.007 10.611zm-15.338 0C72.481 10.812 63.828.217 63.828.217h-1.56v12.968h1.486s-.004-10.507-.013-10.698l8.764 10.698h1.477V.218h-1.497s0 10.528.007 10.611zm21.94-3.56h5.722V5.974h-5.722V1.53h6.897V.218h-8.385v12.968h8.684v-1.303h-7.196V7.269zm17.643 1.802a12.04 12.04 0 0 0-.435-.716c-.139-.21-.283-.4-.427-.563a3.087 3.087 0 0 0-.452-.425 2.047 2.047 0 0 0-.275-.174 4.806 4.806 0 0 0 1.042-.405c.389-.21.723-.47.997-.772.274-.302.488-.653.635-1.044a3.58 3.58 0 0 0 .224-1.282c0-.571-.118-1.082-.346-1.516a3.25 3.25 0 0 0-.918-1.087 4.104 4.104 0 0 0-1.3-.65 5.198 5.198 0 0 0-1.501-.22h-4.753v12.969h1.487V7.642h2.121c.268 0 .514.03.73.089.213.058.416.155.602.29.191.138.378.327.557.559.183.239.375.538.573.893l2.024 3.65.035.06h1.736l-2.356-4.11zm-6.021-7.542h2.973c.915 0 1.622.204 2.1.605.474.4.714.958.714 1.662 0 .39-.07.746-.211 1.057-.139.31-.338.577-.59.795-.252.22-.561.391-.919.51-.36.12-.764.18-1.198.18h-2.87l.001-4.81zM32.807.218l9.192 12.966.799-1.11L34.402.218h-1.595zm20.324 0l-7.59 10.737-5.488-7.83h-1.614l7.12 10.06L54.73.218h-1.598z" fill="#fff"/><path d="M51.157.218h-1.595l-4.818 6.834.792 1.12L51.157.218z" fill="#fff"/></svg>