<svg width="116" height="18" fill="none" xmlns="http://www.w3.org/2000/svg"><g clip-path="url(#clip0)" fill="#fff"><path d="M.518 8.451C.933 6.38 2.796 4.916 5.447 4.916c3.064 0 5.425 1.26 5.425 5.323v7.558h-2.61l-.33-1.625C7.02 17.269 5.818 18 3.955 18 1.76 18 .02 16.66.02 14.14c0-2.52 2.278-4.144 5.508-4.144h2.154v-.57c0-1.421-1.077-1.868-2.278-1.868-.91 0-1.822.284-2.236 1.462l-2.65-.569zm4.183 6.908c1.45 0 2.982-.975 2.982-2.6v-.244H5.57c-1.367-.04-2.195.487-2.195 1.584 0 .61.456 1.26 1.325 1.26zm57.855-6.908c.414-2.072 2.277-3.535 4.928-3.535 3.064 0 5.425 1.26 5.425 5.323v7.558h-2.61l-.33-1.625C69.056 17.269 67.857 18 65.993 18c-2.195 0-3.934-1.34-3.934-3.86 0-2.52 2.277-4.144 5.508-4.144h2.153v-.57c0-1.421-1.077-1.868-2.278-1.868-.91 0-1.822.284-2.236 1.462l-2.65-.569zm4.182 6.908c1.45 0 2.982-.975 2.982-2.6v-.244h-2.112c-1.367 0-2.195.487-2.195 1.625 0 .569.456 1.219 1.325 1.219zm9.07 2.478V5.12h3.188v2.072c.912-1.503 2.361-2.276 3.81-2.276.58 0 1.036.082 1.574.244l-.58 2.885c-.372-.244-.787-.366-1.325-.366-1.863 0-3.479 1.504-3.479 5.608v4.51l-3.188.04zM91.172 4.916c1.325 0 2.567.65 3.147 1.341V0h3.189v17.837h-3.189v-1.3c-.373.65-1.532 1.504-3.147 1.504-3.893 0-5.881-2.642-5.881-6.542s1.988-6.583 5.88-6.583zm.455 10.443c1.657 0 2.982-1.34 2.982-3.86 0-2.52-1.325-3.86-2.982-3.86-1.656 0-2.981 1.34-2.981 3.86 0 2.52 1.325 3.86 2.981 3.86zm17.394-8.411l-1.905 1.707a2.744 2.744 0 0 0-2.154-1.098c-.621 0-1.201.366-1.201 1.057 0 .569.456.975 1.243 1.219 1.78.65 4.679 1.178 4.679 3.9 0 2.316-1.78 4.226-4.597 4.226-2.691 0-4.514-1.869-5.135-3.413l2.526-1.34c.456 1.218 1.326 2.112 2.609 2.112.994 0 1.616-.447 1.616-1.381 0-1.057-1.657-1.3-3.231-1.95-1.408-.57-2.609-1.463-2.609-3.414 0-1.95 1.615-3.697 4.142-3.697 1.698 0 3.23.853 4.017 2.072zM42.677 5.12L40.4 13.855 38.205 5.12h-2.982l-2.154 8.735-1.822-5.078-.207.609-1.035 3.25 1.656 5.201h2.816l2.237-8.207 2.236 8.207h2.816L45.908 5.12h-3.23zm15.406 0l-2.32 8.735L53.57 5.12h-2.982l-2.153 8.735-1.822-5.078-.208.609-1.035 3.25 1.657 5.201h2.816l2.236-8.207 2.236 8.207h2.816L61.273 5.12h-3.189zm-27.54 0L26.4 17.797h-2.816L21.35 9.589l-2.236 8.248h-2.816L12.155 5.16h3.23l2.32 8.695L19.9 5.16h2.94l2.195 8.695 2.319-8.695 3.189-.04zm83.282 8.614c1.243 0 2.154.893 2.154 2.113 0 1.219-.911 2.112-2.154 2.112-1.242 0-2.153-.893-2.153-2.112 0-1.22.952-2.113 2.153-2.113z"/></g><defs><clipPath id="clip0"><path fill="#fff" d="M0 0h116v18H0z"/></clipPath></defs></svg>