<svg width="130" height="47" fill="none" xmlns="http://www.w3.org/2000/svg"><path d="M27.932 32.377c0 1.925-.37 3.726-1.111 5.405a13.516 13.516 0 0 1-2.963 4.408 14.365 14.365 0 0 1-4.443 2.992c-1.693.7-3.51 1.049-5.45 1.049-1.939 0-3.755-.35-5.448-1.05a14.365 14.365 0 0 1-4.444-2.99 14.24 14.24 0 0 1-3.015-4.409C.353 36.103 0 34.303 0 32.379c0-1.925.353-3.726 1.058-5.405a14.24 14.24 0 0 1 3.015-4.409 13.64 13.64 0 0 1 4.444-2.938c1.693-.735 3.51-1.102 5.449-1.102 1.622 0 3.139.262 4.55.787 1.445.49 2.768 1.19 3.967 2.1V0h5.449v32.377zm-13.966 8.449a8.55 8.55 0 0 0 3.28-.63 8.792 8.792 0 0 0 2.75-1.836 8.155 8.155 0 0 0 1.8-2.677 8.172 8.172 0 0 0 .687-3.306v-.052a7.81 7.81 0 0 0-.688-3.254 8.1 8.1 0 0 0-4.55-4.46 7.98 7.98 0 0 0-3.28-.682 8.352 8.352 0 0 0-3.332.682 8.23 8.23 0 0 0-2.698 1.784 8.713 8.713 0 0 0-1.851 2.729 7.808 7.808 0 0 0-.688 3.253c0 1.155.23 2.257.688 3.306a8.892 8.892 0 0 0 4.55 4.513c1.057.42 2.168.63 3.332.63zm30.553-6.664a9.227 9.227 0 0 0 1.058 2.676 9.048 9.048 0 0 0 4.39 3.516 8.898 8.898 0 0 0 2.91.472c1.234 0 2.38-.245 3.439-.735a8.717 8.717 0 0 0 2.856-2.046h6.401a8.943 8.943 0 0 1-.793 1.522c-.282.454-.6.91-.952 1.364-1.27 1.61-2.857 2.904-4.761 3.883-1.905.945-3.968 1.417-6.19 1.417-1.94 0-3.756-.35-5.449-1.05a14.366 14.366 0 0 1-4.443-2.99 14.239 14.239 0 0 1-3.016-4.409c-.705-1.679-1.058-3.48-1.058-5.404 0-1.925.353-3.726 1.058-5.405a14.24 14.24 0 0 1 3.016-4.409 13.641 13.641 0 0 1 4.443-2.938c1.693-.735 3.51-1.102 5.45-1.102 2.221 0 4.284.49 6.189 1.47a13.515 13.515 0 0 1 4.76 3.882c1.165 1.4 2.01 3.044 2.54 4.933.317 1.12.476 2.309.476 3.568a9.59 9.59 0 0 1-.159 1.785H44.52zm8.358-10.233c-1.728 0-3.28.455-4.655 1.364a8.512 8.512 0 0 0-3.068 3.516H60.6l-.53-.84a5.87 5.87 0 0 0-.475-.787 8.421 8.421 0 0 0-2.963-2.361 8.137 8.137 0 0 0-3.756-.892zm49.174-5.353v15.69c0 2.1-.494 4.024-1.481 5.773a11.668 11.668 0 0 1-3.915 4.25c-.987.63-2.045 1.12-3.174 1.47a11.9 11.9 0 0 1-3.544.524 11.9 11.9 0 0 1-3.544-.524 13.076 13.076 0 0 1-3.175-1.47c-1.622-1.084-2.927-2.5-3.914-4.25-.988-1.75-1.481-3.673-1.481-5.772v-15.69h5.395v15.69c0 .91.177 1.766.53 2.57a6.73 6.73 0 0 0 1.428 2.1 6.791 6.791 0 0 0 2.116 1.417 6.86 6.86 0 0 0 2.645.525c.917 0 1.78-.175 2.592-.525a6.79 6.79 0 0 0 2.116-1.417 6.325 6.325 0 0 0 1.481-2.1 6.336 6.336 0 0 0 .53-2.57v-15.69h5.395zm26.409 14.798c.494.7.882 1.47 1.164 2.31.282.804.405 1.661.37 2.57a7.54 7.54 0 0 1-.793 3.202 8.768 8.768 0 0 1-1.958 2.571 9.027 9.027 0 0 1-2.856 1.732 9.441 9.441 0 0 1-3.439.524c-1.693-.07-3.227-.507-4.602-1.311-1.341-.805-2.363-1.872-3.069-3.201l4.55-3.149c.176.63.564 1.172 1.164 1.627.599.42 1.305.63 2.116.63.917.035 1.71-.21 2.38-.735.706-.56 1.058-1.242 1.058-2.047 0-.245-.017-.42-.053-.524v-.105a.4.4 0 0 1-.052-.158c0-.07-.018-.14-.053-.21-.247-.595-.706-1.084-1.376-1.469a2.072 2.072 0 0 0-.476-.21l.053-.052c-.494-.28-1.04-.543-1.64-.788-.6-.28-1.217-.56-1.852-.84l-1.798-.944c-.6-.35-1.164-.752-1.693-1.207v-.052l-.159-.158a7.855 7.855 0 0 1-1.745-2.413 6.651 6.651 0 0 1-.582-2.992 6.971 6.971 0 0 1 .74-2.938 7.95 7.95 0 0 1 1.799-2.362 8.95 8.95 0 0 1 2.698-1.574 8.5 8.5 0 0 1 3.28-.525c1.516.07 2.874.438 4.073 1.102 1.234.665 2.204 1.557 2.91 2.677l-4.444 3.043c-.212-.385-.564-.717-1.058-.997-.458-.28-.988-.42-1.587-.42-.811-.035-1.517.158-2.116.578-.564.42-.847.927-.847 1.521 0 .175.018.298.053.368.071.384.247.717.529.997.283.28.635.507 1.058.682.671.385 1.429.787 2.275 1.207a30.76 30.76 0 0 1 2.645 1.312c.635.28 1.27.682 1.905 1.207l.264.262c.353.315.741.735 1.164 1.26z" fill="#fff"/></svg>