<svg width="16" height="10" fill="none" xmlns="http://www.w3.org/2000/svg"><path d="M14.45 1.415h-4.01v-1h4.01v1zM7.77 5.517c.259.402.388.891.388 1.465a2.93 2.93 0 0 1-.442 1.595 2.762 2.762 0 0 1-.704.786 2.716 2.716 0 0 1-1.124.502c-.433.09-.9.135-1.405.135H0V0h4.808C6.02.02 6.879.372 7.386 1.065c.305.425.456.935.456 1.527 0 .612-.153 1.1-.46 1.472-.171.209-.424.398-.758.57.506.186.89.479 1.147.883zM2.296 3.942h2.107c.433 0 .782-.082 1.052-.247.27-.165.404-.459.404-.88 0-.465-.178-.774-.535-.922-.307-.103-.699-.157-1.175-.157H2.296v2.206zM6.062 6.84c0-.52-.212-.879-.634-1.071-.236-.11-.568-.166-.995-.17H2.296v2.665H4.4c.432 0 .767-.057 1.008-.175.435-.218.654-.633.654-1.25zm9.875-1.627c.048.327.07.802.061 1.422h-5.192c.029.72.276 1.224.745 1.512.283.18.626.269 1.028.269.424 0 .769-.108 1.035-.33a1.57 1.57 0 0 0 .383-.49H15.9c-.05.425-.28.856-.691 1.294-.638.697-1.533 1.046-2.682 1.046a3.88 3.88 0 0 1-2.512-.882c-.724-.589-1.087-1.544-1.087-2.87 0-1.242.326-2.193.98-2.855.658-.663 1.507-.993 2.552-.993.62 0 1.179.11 1.677.335.497.224.907.576 1.23 1.06.294.427.482.92.57 1.482zm-1.874.187c-.035-.498-.2-.875-.498-1.132-.295-.259-.665-.388-1.105-.388-.48 0-.85.138-1.112.41-.265.272-.43.642-.497 1.11h3.212z" fill="#fff"/></svg>