<svg width="183" height="28" fill="none" xmlns="http://www.w3.org/2000/svg"><path d="M18.099 17.964l-9.05-8.982L18.1 0H9.05L0 8.982l4.525 4.542 4.524 4.44 4.525 4.44 4.525-4.44z" fill="#fff"/><path d="M24.534 13.524L20.01 8.982l-4.524-4.44-4.425 4.44 8.95 8.982-9.05 8.982h9.05l4.524-4.44 4.525-4.542-4.525-4.44zM40.32 8.982c-1.307 0-2.413.404-3.218 1.312-.804.909-1.206 2.12-1.206 3.734 0 1.615.402 2.826 1.106 3.734.804.909 1.81 1.313 3.217 1.313.905 0 1.81-.202 2.916-.505v1.312a9.61 9.61 0 0 1-3.117.505c-1.81 0-3.217-.505-4.223-1.615-1.005-1.11-1.508-2.725-1.508-4.744 0-1.312.201-2.422.704-3.33.503-.908 1.206-1.716 2.01-2.22.805-.505 1.911-.808 3.218-.808 1.308 0 2.414.202 3.42.707l-.604 1.21c-.804-.302-1.71-.605-2.715-.605zm12.569 7.973c0 1.11-.402 1.918-1.207 2.523-.804.606-1.81.908-3.217.908-1.509 0-2.615-.201-3.42-.605v-1.413c.504.202 1.107.404 1.61.505.502.1 1.206.201 1.81.201 1.005 0 1.709-.202 2.111-.504.503-.404.704-.909.704-1.514 0-.404-.1-.808-.302-1.01-.2-.302-.502-.504-.905-.807a17.795 17.795 0 0 0-1.81-.807c-1.106-.404-2.01-.908-2.413-1.514-.503-.605-.704-1.312-.704-2.22 0-.909.403-1.716 1.106-2.322.704-.605 1.71-.807 2.816-.807 1.207 0 2.313.202 3.419.707l-.403 1.21a8.043 8.043 0 0 0-3.016-.605c-.804 0-1.307.202-1.81.505-.402.302-.603.807-.603 1.413 0 .403.1.807.2 1.009.202.303.403.505.805.706.402.202.905.505 1.71.808 1.307.504 2.212 1.009 2.714 1.514.604.605.805 1.312.805 2.119zm9.551 0c0 1.11-.402 1.918-1.206 2.523-.805.606-1.81.908-3.218.908-1.508 0-2.614-.201-3.418-.605v-1.413a9.843 9.843 0 0 0 1.608.505c.503.1 1.207.201 1.81.201 1.006 0 1.71-.202 2.112-.504.503-.404.704-.909.704-1.514 0-.404-.1-.808-.302-1.01-.201-.302-.503-.504-.905-.807a17.795 17.795 0 0 0-1.81-.807c-1.106-.404-2.01-.908-2.413-1.514-.503-.605-.704-1.312-.704-2.22 0-.909.402-1.716 1.106-2.322.704-.605 1.71-.807 2.816-.807 1.206 0 2.312.202 3.418.707l-.402 1.21a8.043 8.043 0 0 0-3.016-.605c-.805 0-1.307.202-1.81.505-.403.302-.604.807-.604 1.413 0 .403.101.807.201 1.009.202.303.403.505.805.706.402.202.905.505 1.71.808 1.306.504 2.211 1.009 2.714 1.514.503.605.804 1.312.804 2.119zm12.57-3.129c0 2.019-.604 3.633-1.71 4.744-1.105 1.11-2.714 1.715-4.826 1.715h-4.022V7.872h4.223c2.011 0 3.52.504 4.626 1.514 1.105 1.009 1.709 2.523 1.709 4.44zm-3.419.101c0-1.11-.2-2.018-.704-2.523-.402-.505-1.106-.807-2.01-.807H67.87v6.963h.704c1.005 0 1.709-.302 2.212-.908.603-.605.804-1.514.804-2.725zm10.055 6.56c-1.61 0-2.816-.403-3.72-1.312-.906-.807-1.308-2.018-1.308-3.633 0-1.615.402-2.826 1.207-3.734.804-.909 2.01-1.312 3.519-1.312 1.408 0 2.514.403 3.318 1.11.804.707 1.207 1.817 1.207 3.23v1.513h-5.933c0 .505.201.909.604 1.312a2.46 2.46 0 0 0 1.508.505c.603 0 1.106-.1 1.609-.202.502-.1 1.005-.303 1.608-.605v2.422c-.502.303-1.005.404-1.608.504-.604.101-1.207.202-2.011.202zm-.201-7.67c-.403 0-.704.101-1.006.404-.302.202-.402.605-.503 1.11h2.816c0-.505-.1-.807-.402-1.11-.101-.303-.403-.404-.905-.404zm13.675 4.542c0 1.009-.302 1.816-1.006 2.32-.704.506-1.71.808-3.017.808-.703 0-1.307 0-1.81-.1-.502-.102-1.106-.203-1.608-.404v-2.624c.502.201 1.106.403 1.71.605.602.101 1.105.202 1.608.202.704 0 1.106-.202 1.106-.505 0-.201-.1-.302-.302-.403a40.21 40.21 0 0 0-1.71-.808c-.904-.403-1.507-.807-1.809-1.21-.302-.505-.503-1.01-.503-1.716 0-.909.302-1.615 1.006-2.12.704-.504 1.609-.706 2.916-.706.603 0 1.206.1 1.81.202.603.1 1.106.302 1.709.605l-.905 2.12a5.802 5.802 0 0 0-1.408-.505c-.502-.101-.905-.202-1.206-.202-.503 0-.805.101-.805.404 0 .202.1.303.302.403.201.101.704.303 1.609.707.704.303 1.206.505 1.508.807.302.303.603.606.704.909 0 .201.1.706.1 1.21zm1.81-9.083c0-.505.1-.909.402-1.11a2.233 2.233 0 0 1 1.307-.404c.603 0 1.106.1 1.307.403.302.202.402.606.402 1.11 0 1.01-.603 1.413-1.81 1.413-1.106.101-1.608-.403-1.608-1.412zm3.318 12.01H96.93v-9.588h3.318v9.587zm11.362-9.588v1.614l-1.307.505c.201.303.301.707.301 1.11 0 1.01-.402 1.817-1.106 2.422-.704.606-1.81.808-3.217.808-.403 0-.604 0-.805-.101-.1.1-.1.303-.1.403 0 .202.1.303.402.404.301.101.603.101 1.005.101h1.609c2.112 0 3.218.909 3.218 2.725 0 1.211-.503 2.12-1.509 2.725-1.005.605-2.413 1.01-4.223 1.01-1.307 0-2.413-.203-3.117-.707a2.165 2.165 0 0 1-1.106-1.918c0-1.11.704-1.917 2.112-2.22-.302-.101-.503-.303-.805-.606-.201-.302-.301-.504-.301-.807 0-.303.1-.605.201-.807a4.917 4.917 0 0 1 1.005-.808c-.502-.202-.905-.605-1.206-1.009-.302-.505-.402-1.01-.402-1.716 0-1.009.402-1.816 1.106-2.422.703-.605 1.709-.908 3.016-.908.201 0 .503 0 .905.1.402 0 .704.102.905.102h3.419zm-7.24 10.799c0 .302.101.504.402.706.302.202.704.202 1.207.202.804 0 1.408-.101 1.91-.303.503-.202.704-.505.704-.807 0-.303-.1-.404-.402-.505a3.929 3.929 0 0 0-1.307-.202h-1.307c-.402 0-.604.101-.905.202-.201.202-.302.404-.302.707zm1.006-7.67c0 1.008.301 1.513 1.005 1.513.302 0 .603-.1.704-.403.201-.202.302-.606.302-1.11 0-1.01-.302-1.514-1.006-1.514-.603 0-1.005.504-1.005 1.513zm13.675 6.458v-5.248c0-.605-.101-1.11-.302-1.413-.201-.302-.503-.504-.905-.504-.603 0-1.006.202-1.207.706-.201.404-.402 1.211-.402 2.322v4.238h-3.318V10.8h2.514l.402 1.21h.201c.302-.403.704-.807 1.207-1.008.502-.202 1.106-.303 1.709-.303 1.106 0 1.91.303 2.514.908.603.606.905 1.514.905 2.624v6.257h-3.318v-.202zm13.875 0l-1.508-3.936h-4.927l-1.508 3.936h-1.408l4.927-12.413h1.207l4.826 12.413h-1.609zm-2.011-5.248l-1.407-3.835a19.089 19.089 0 0 1-.604-1.816c-.1.504-.301 1.11-.502 1.816l-1.408 3.835h3.921zm12.569 5.248l-1.709-5.45c-.101-.302-.302-1.11-.604-2.22h-.1a18.625 18.625 0 0 1-.603 2.321l-1.71 5.45h-1.609l-2.513-9.285h1.508c.603 2.321 1.005 4.138 1.408 5.35.301 1.21.502 2.018.502 2.421h.101c.101-.302.201-.706.302-1.21.1-.505.301-.909.402-1.212l1.709-5.349h1.508l1.609 5.35c.302 1.008.503 1.816.603 2.421h.101c0-.201.101-.504.201-.908.101-.404.704-2.725 1.709-6.863h1.408l-2.514 9.285h-1.709v-.1zm11.563 0l-.301-1.312h-.101c-.502.606-.905 1.01-1.407 1.211-.503.202-1.006.303-1.71.303-.905 0-1.609-.202-2.111-.706-.503-.505-.805-1.11-.805-2.019 0-1.917 1.509-2.826 4.525-2.927l1.609-.1v-.606c0-.706-.201-1.312-.503-1.615-.302-.303-.804-.504-1.508-.504-.805 0-1.609.201-2.614.706l-.403-1.11c.503-.202.905-.404 1.509-.606.502-.1 1.106-.201 1.608-.201 1.106 0 1.911.201 2.414.706.502.505.804 1.312.804 2.321v6.358h-1.006v.101zm-3.217-1.009c.905 0 1.508-.202 2.011-.706.503-.505.704-1.11.704-2.019v-.807l-1.408.1c-1.106 0-1.91.203-2.413.505-.503.303-.704.808-.704 1.413 0 .505.201.909.503 1.11.402.303.804.404 1.307.404zm11.362-8.477c.402 0 .804 0 1.106.1l-.201 1.313c-.402-.101-.704-.101-1.006-.101a2.47 2.47 0 0 0-1.91.908c-.503.605-.805 1.413-.805 2.321v4.945h-1.407V11h1.106l.201 1.716h.1c.302-.605.805-1.11 1.207-1.413.503-.303 1.006-.504 1.609-.504zm9.149 8.275c-.704.909-1.709 1.413-3.016 1.413-1.207 0-2.112-.403-2.816-1.21-.703-.808-1.005-2.02-1.005-3.533 0-1.514.302-2.725 1.005-3.533.704-.807 1.609-1.312 2.816-1.312 1.206 0 2.212.505 2.916 1.414h.1l-.1-.707V7.064h1.407v13.221h-1.106l-.201-1.21zm-2.815.202c1.005 0 1.609-.303 2.111-.807.403-.505.604-1.413.604-2.523v-.303c0-1.312-.201-2.22-.704-2.826-.402-.606-1.106-.807-2.112-.807-.804 0-1.407.303-1.91 1.009-.402.605-.704 1.514-.704 2.725 0 1.21.201 2.12.603 2.725.604.504 1.207.807 2.112.807zm13.071-1.514c0 .909-.301 1.514-1.005 2.019-.604.504-1.509.706-2.715.706-1.207 0-2.212-.202-2.916-.605V18.57c.402.201.905.403 1.408.504.502.101 1.005.202 1.508.202.704 0 1.307-.1 1.709-.303.402-.201.603-.605.603-1.11 0-.404-.201-.706-.502-.908-.302-.303-.905-.606-1.81-.908-.905-.303-1.508-.606-1.81-.808-.402-.202-.603-.504-.804-.807-.202-.303-.302-.707-.302-1.11 0-.707.302-1.312.905-1.817.603-.505 1.408-.706 2.514-.706 1.005 0 2.011.201 2.916.605l-.503 1.11c-.905-.403-1.81-.605-2.514-.605-.704 0-1.207.1-1.508.302-.302.202-.503.505-.503.909 0 .202.101.504.201.605.101.202.302.303.603.505.302.202.805.404 1.609.706 1.106.404 1.81.808 2.212 1.212.503.504.704 1.009.704 1.614z" fill="#fff"/></svg>