<svg width="30" height="31" viewBox="0 0 30 31" fill="none" xmlns="http://www.w3.org/2000/svg">
<path d="M26.7602 6.44281L23.9702 3.65281C23.6102 3.29281 23.0402 3.29281 22.7102 3.65281L10.5602 15.7728C10.5002 15.8328 10.4402 15.9228 10.3802 16.0128L7.9202 21.2628C7.7702 21.5928 7.8302 22.0128 8.1002 22.2828C8.2802 22.4628 8.4902 22.5528 8.7302 22.5528C8.8502 22.5528 9.0002 22.5228 9.1202 22.4628L14.3702 20.0028C14.4602 19.9728 14.5502 19.9128 14.6102 19.8228L26.7602 7.67281C26.9402 7.49281 27.0302 7.28281 27.0302 7.04281C27.0302 6.80281 26.9402 6.59281 26.7602 6.44281ZM13.4402 18.4728L10.5902 19.8228L11.9402 16.9728L20.6102 8.30281L22.1402 9.83281L13.4402 18.4728ZM23.3702 8.54281L21.8402 7.01281L23.3102 5.54281L24.8402 7.07281L23.3702 8.54281Z" fill="#FCC133"/>
<path d="M24.2403 13.7028C23.7303 13.7028 23.3403 14.0928 23.3403 14.6028V15.0828V24.5328H5.58027V6.68281H7.50027H8.34027H16.5603C17.0703 6.68281 17.4603 6.29281 17.4603 5.78281C17.4603 5.27281 17.0703 4.88281 16.5603 4.88281H8.34027H7.50027H5.58027C4.59027 4.88281 3.78027 5.69281 3.78027 6.68281V24.5328C3.78027 25.5228 4.59027 26.3328 5.58027 26.3328H23.3403C24.3303 26.3328 25.1403 25.5228 25.1403 24.5328V20.9628V15.0828V14.6028C25.1403 14.1228 24.7203 13.7028 24.2403 13.7028Z" fill="#FCC133"/>
</svg>
