<svg width="30" height="30" viewBox="0 0 30 30" fill="none" xmlns="http://www.w3.org/2000/svg">
<path d="M15.0002 4.80005C12.8528 4.80005 10.6937 5.61904 9.05645 7.2563C7.83884 8.4739 7.10069 9.98435 6.7877 11.5594C3.61043 12.1758 1.2002 14.9506 1.2002 18.3001C1.2002 22.1001 4.3001 25.2001 8.1002 25.2001H22.8002C26.1086 25.2001 28.8002 22.5085 28.8002 19.2001C28.8002 16.0776 26.3947 13.5357 23.3439 13.2563C23.358 11.0846 22.5867 8.9084 20.9346 7.2563C19.2987 5.62038 17.1476 4.80005 15.0002 4.80005ZM15.0002 6.60005C16.6917 6.60005 18.3666 7.22895 19.6596 8.52193C21.1537 10.016 21.7859 12.046 21.5533 13.9876C21.5374 14.114 21.5485 14.2425 21.586 14.3643C21.6234 14.4862 21.6863 14.5987 21.7705 14.6945C21.8547 14.7902 21.9583 14.8669 22.0744 14.9196C22.1905 14.9723 22.3165 14.9997 22.4439 15.0001H22.8002C25.1426 15.0001 27.0002 16.8577 27.0002 19.2001C27.0002 21.5424 25.1426 23.4001 22.8002 23.4001H8.1002C5.27294 23.4001 3.0002 21.1273 3.0002 18.3001C3.0002 15.6301 5.03075 13.4549 7.63145 13.2188C7.83541 13.1989 8.02648 13.11 8.17308 12.9669C8.31968 12.8237 8.41303 12.6347 8.4377 12.4313C8.6033 11.0048 9.23453 9.61884 10.3314 8.52193C11.6231 7.23028 13.3087 6.60005 15.0002 6.60005ZM15.0002 12.0001C14.5031 12.0001 14.1002 12.403 14.1002 12.9001V18.6657L12.3096 17.0344C11.9605 16.7181 11.3527 16.7432 11.0346 17.0907C10.7164 17.4381 10.7098 18.012 11.0908 18.3657L14.3908 21.3657C14.5415 21.5035 14.7001 21.6001 15.0002 21.6001C15.3003 21.6001 15.4313 21.5289 15.6096 21.3657L18.9096 18.3657C19.2555 18.0459 19.3204 17.4381 18.9658 17.0907C18.6294 16.761 18.0399 16.7181 17.6908 17.0344L15.9002 18.6657V12.9001C15.9002 12.403 15.4974 12.0001 15.0002 12.0001Z" fill="#FCC133"/>
</svg>
