<svg width="151" height="55" viewBox="0 0 151 55" fill="none" xmlns="http://www.w3.org/2000/svg">
<path d="M24.9036 52.15H3.62359C2.08359 52.15 1.18359 50.78 1.18359 49.58C1.18359 48.87 1.47359 48.22 1.93359 47.76L11.2236 38.47L24.9036 52.15Z" fill="white"/>
<path d="M3.6232 52.15C2.0132 52.15 0.00320461 50.87 0.00320461 48.31V19.7C0.00320461 15.83 -0.196795 13.12 2.5632 10.35L12.9232 0L31.2932 18.4L1.9332 47.75C1.4632 48.22 1.1832 48.86 1.1832 49.57C1.1832 50.77 2.0832 52.15 3.6232 52.15Z" fill="white"/>
<path d="M39.7135 52.12C37.4935 52.12 35.8535 50.55 35.8535 48.2C35.8535 45.85 37.5535 44.28 39.7635 44.28C41.3335 44.28 42.4735 45.11 43.0135 46.12L41.8135 46.84C41.3535 46.06 40.7235 45.59 39.7135 45.59C38.3835 45.59 37.2935 46.59 37.2935 48.2C37.2935 49.75 38.3735 50.81 39.7135 50.81C40.6635 50.81 41.3635 50.39 41.9135 49.6L43.1135 50.28C42.2535 51.53 41.3635 52.12 39.7135 52.12Z" fill="white"/>
<path d="M46.6436 52.12C45.1736 52.12 43.7236 51.17 43.7236 49.3C43.7236 47.43 45.1736 46.48 46.6436 46.48C48.1136 46.48 49.5636 47.43 49.5636 49.3C49.5636 51.18 48.1036 52.12 46.6436 52.12ZM48.1836 49.3C48.1836 48.32 47.4436 47.75 46.6436 47.75C45.8436 47.75 45.1036 48.32 45.1036 49.3C45.1036 50.28 45.8436 50.85 46.6436 50.85C47.4336 50.85 48.1836 50.28 48.1836 49.3Z" fill="white"/>
<path d="M50.0137 51.9699V50.7699C50.0137 50.7699 50.1537 50.8299 50.3937 50.8299C50.7237 50.8299 50.8937 50.5999 50.9437 49.6399L51.1137 46.6099H55.3137V51.9499H53.9537V47.8299H52.2937L52.1937 49.6799C52.1137 51.2199 51.6837 52.0199 50.4837 52.0199C50.2337 52.0499 50.0137 51.9699 50.0137 51.9699Z" fill="white"/>
<path d="M59.8839 51.12C59.5039 51.79 58.8639 52.12 58.0939 52.12C57.0339 52.12 56.2939 51.46 56.2939 50.45C56.2939 49.36 57.1139 48.87 58.2039 48.72L59.8139 48.5V48.23C59.8139 47.71 59.4939 47.42 58.8139 47.42C58.2239 47.42 57.8739 47.69 57.8739 48.02C57.8739 48.06 57.8739 48.13 57.8839 48.17L56.6039 48.31C56.5839 48.21 56.5839 48.11 56.5839 48.03C56.5839 47.2 57.4139 46.47 58.8139 46.47C60.3139 46.47 61.1739 47.11 61.1739 48.41V50.64C61.1739 51.22 61.2239 51.6 61.3439 51.97H59.9939C59.9339 51.76 59.8839 51.47 59.8839 51.12ZM59.8039 49.54V49.44L58.5139 49.62C57.9339 49.71 57.6239 49.92 57.6239 50.37C57.6239 50.8 57.9639 51.02 58.3839 51.02C59.1739 51.02 59.8039 50.57 59.8039 49.54Z" fill="white"/>
<path d="M63.6937 46.63V47.39C64.0537 46.87 64.7438 46.47 65.5438 46.47C66.8838 46.47 68.0037 47.51 68.0037 49.29C68.0037 51 66.8538 52.11 65.4338 52.11C64.6838 52.11 64.0837 51.79 63.7037 51.3V54.16H62.3438V46.62H63.6937V46.63ZM63.6138 49.3C63.6138 50.17 64.2537 50.85 65.1237 50.85C65.9937 50.85 66.6337 50.17 66.6337 49.3C66.6337 48.43 65.9937 47.75 65.1237 47.75C64.2437 47.75 63.6138 48.43 63.6138 49.3Z" fill="white"/>
<path d="M125.473 29.04H122.393L118.723 32.75V29.04H116.113V39.28H118.723V35.04L122.453 39.28H125.593L120.763 33.78L125.473 29.04Z" fill="white"/>
<path d="M43.0036 24.8201H36.4336V39.2701H39.1636V34.2301H43.0036C46.2636 34.2301 48.4136 32.5601 48.4136 29.5201C48.4136 26.4801 46.2636 24.8201 43.0036 24.8201ZM42.9236 31.8001H39.1636V27.2601H42.9236C44.8236 27.2601 45.6936 28.1701 45.6936 29.5301C45.6936 30.8901 44.8236 31.8001 42.9236 31.8001Z" fill="white"/>
<path d="M54.5636 28.75C51.7536 28.75 48.9736 30.57 48.9736 34.16C48.9736 37.75 51.7636 39.57 54.5636 39.57C57.3736 39.57 60.1536 37.75 60.1536 34.16C60.1636 30.56 57.3736 28.75 54.5636 28.75ZM54.5636 37.13C53.0336 37.13 51.6136 36.04 51.6136 34.16C51.6136 32.28 53.0336 31.19 54.5636 31.19C56.0936 31.19 57.5136 32.28 57.5136 34.16C57.5136 36.03 56.0936 37.13 54.5636 37.13Z" fill="white"/>
<path d="M66.8036 37.13C65.2336 37.13 64.0736 35.99 64.0736 34.16C64.0736 32.34 65.2736 31.19 66.8036 31.19C67.7336 31.19 68.5336 31.62 69.1736 32.59L71.4036 31.31C70.6636 29.72 69.0536 28.75 66.8236 28.75C63.9136 28.75 61.4336 30.9 61.4336 34.16C61.4336 37.42 63.7836 39.57 66.8236 39.57C69.0136 39.57 70.4736 38.58 71.5136 36.82L69.3636 35.64C68.7436 36.51 68.0836 37.13 66.8036 37.13Z" fill="white"/>
<path d="M94.4934 34.84C94.3734 36.41 94.0634 36.76 93.5234 36.76C93.1534 36.76 92.9834 36.72 92.7334 36.65L92.7434 39.3C92.7434 39.3 93.0634 39.4 93.6634 39.4C95.8734 39.4 96.6934 37.98 96.9034 34.94L97.1534 31.37H100.083V39.26H102.683V29.04H94.9234L94.4934 34.84Z" fill="white"/>
<path d="M87.1234 28.75C84.1534 28.75 81.7334 30.92 81.7334 34.16C81.7334 37.4 84.1534 39.57 86.9934 39.57C89.2434 39.57 90.6634 38.72 91.7034 36.97L89.6434 35.94C89.0034 36.75 88.4234 37.34 87.0434 37.34C85.5134 37.34 84.4034 36.35 84.2334 34.78H92.1234V33.87C92.1134 30.87 90.0534 28.75 87.1234 28.75ZM84.2734 32.79C84.6434 31.63 85.6734 30.73 87.0434 30.73C88.4934 30.73 89.4634 31.51 89.7034 32.79H84.2734Z" fill="white"/>
<path d="M109.543 28.75C106.573 28.75 104.153 30.92 104.153 34.16C104.153 37.4 106.573 39.57 109.413 39.57C111.663 39.57 113.083 38.72 114.123 36.97L112.063 35.94C111.423 36.75 110.843 37.34 109.463 37.34C107.933 37.34 106.823 36.35 106.653 34.78H114.543V33.87C114.533 30.87 112.473 28.75 109.543 28.75ZM106.693 32.79C107.063 31.63 108.093 30.73 109.463 30.73C110.913 30.73 111.883 31.51 112.123 32.79H106.693Z" fill="white"/>
<path d="M72.3135 31.31H75.3735V39.28H77.9735V31.31H81.0335V29.04H72.3135V31.31Z" fill="white"/>
<path d="M130.754 28.75C127.944 28.75 125.164 30.57 125.164 34.16C125.164 37.75 127.954 39.57 130.754 39.57C133.564 39.57 136.344 37.75 136.344 34.16C136.354 30.56 133.564 28.75 130.754 28.75ZM130.754 37.13C129.224 37.13 127.804 36.04 127.804 34.16C127.804 32.28 129.224 31.19 130.754 31.19C132.284 31.19 133.704 32.28 133.704 34.16C133.714 36.03 132.284 37.13 130.754 37.13Z" fill="white"/>
<path d="M146.703 29.03L143.883 36.21L141.053 29.03H137.653V39.26H140.133V32.78L142.873 39.26H144.893L147.633 32.78V39.26H150.103V29.03H146.703Z" fill="white"/>
</svg>
