<svg width="118" height="14" viewBox="0 0 118 14" fill="none" xmlns="http://www.w3.org/2000/svg">
<path d="M6.88792 0C5.83812 0 4.87733 0.180581 4.03211 0.534526C3.18707 0.888472 2.45584 1.38303 1.85911 2.00489C1.26394 2.62675 0.799941 3.36868 0.48137 4.21127C0.162604 5.05219 0 5.97174 0 6.94607C0 7.87302 0.153039 8.74114 0.45287 9.52563C0.752897 10.312 1.18722 11.0008 1.74335 11.5722C2.29793 12.1439 2.97899 12.597 3.76644 12.9197C4.55213 13.2409 5.43796 13.4039 6.4003 13.4039C7.74232 13.4039 8.95453 13.1668 10.0043 12.7002L10.073 12.6691V11.2489L9.89502 11.3425C8.93579 11.846 7.80791 12.1008 6.54085 12.1008C5.71924 12.1008 4.98801 11.9616 4.37098 11.6863C3.75238 11.4091 3.22748 11.0319 2.81346 10.561C2.39787 10.0883 2.07774 9.52896 1.86516 8.89804C1.65122 8.26268 1.54347 7.57717 1.54347 6.85892C1.54347 6.05778 1.66371 5.30863 1.90264 4.63349C2.1402 3.96112 2.48844 3.37035 2.93839 2.87726C3.38677 2.38566 3.94758 1.99767 4.60229 1.72088C5.25837 1.44391 6.02064 1.30477 6.86899 1.30477C7.93909 1.30477 8.95765 1.53124 9.8997 1.97695L10.073 2.05836V0.533786L9.99672 0.505108C9.08747 0.17022 8.04079 0 6.88792 0Z" fill="white"/>
<path d="M19.5447 7.80808C19.2618 7.5089 18.9027 7.2186 18.4777 6.94459C18.0574 6.6752 17.5591 6.39378 16.9952 6.10811C16.4624 5.83853 16.0047 5.5956 15.636 5.38708C15.2752 5.18281 14.9799 4.97393 14.7597 4.76818C14.544 4.56669 14.3863 4.35207 14.2895 4.1269C14.1926 3.90191 14.144 3.6279 14.144 3.31262C14.144 2.98384 14.2161 2.69354 14.3582 2.44783C14.5018 2.20046 14.7019 1.99027 14.9502 1.82449C15.2034 1.65409 15.5032 1.52383 15.8407 1.4365C16.1827 1.34769 16.5515 1.30329 16.9389 1.30329C17.9809 1.30329 18.9011 1.51643 19.6727 1.93699L19.8525 2.03468V0.456077L19.7774 0.426474C19.0542 0.143576 18.1465 0 17.0795 0C16.4703 0 15.8891 0.0799292 15.3517 0.236827C14.8128 0.39391 14.3347 0.621856 13.9316 0.916595C13.527 1.21263 13.2006 1.57546 12.9615 1.99749C12.7226 2.421 12.6006 2.9052 12.6006 3.43677C12.6006 3.85732 12.6648 4.23791 12.7913 4.56799C12.9178 4.89973 13.1177 5.21371 13.3864 5.49791C13.6506 5.77932 13.9957 6.05741 14.4113 6.32569C14.8222 6.58916 15.3221 6.87354 15.8969 7.16994C16.4109 7.441 16.864 7.68671 17.2436 7.90133C17.6153 8.11337 17.9263 8.32781 18.1699 8.53947C18.4059 8.74836 18.5823 8.97353 18.6948 9.20869C18.8059 9.4457 18.8621 9.72731 18.8621 10.047C18.8621 10.7144 18.6292 11.2121 18.1496 11.5644C17.6668 11.9196 16.9218 12.1002 15.936 12.1002C15.6812 12.1002 15.4095 12.0784 15.1298 12.0349C14.8503 11.9922 14.5674 11.9265 14.2895 11.8439C14.0128 11.7594 13.738 11.6549 13.4723 11.5303C13.2084 11.4071 12.9646 11.2648 12.746 11.1109L12.5537 10.9731V12.6497L12.6101 12.6845C12.7866 12.7887 13.0177 12.8873 13.2974 12.9755C13.5707 13.0621 13.8645 13.1391 14.1676 13.2013C14.469 13.2634 14.7722 13.313 15.0689 13.3441C15.3658 13.3789 15.6266 13.3942 15.8423 13.3942C16.4999 13.3942 17.1123 13.3208 17.6637 13.1761C18.2199 13.0314 18.7057 12.8118 19.1104 12.5274C19.5181 12.2382 19.8385 11.8715 20.0649 11.4332C20.2913 10.9969 20.4055 10.4839 20.4055 9.91251C20.4055 9.49769 20.3337 9.11452 20.1898 8.77389C20.0477 8.43419 19.8307 8.11003 19.5447 7.80808Z" fill="white"/>
<path d="M30.4369 8.775C30.2948 8.43419 30.0776 8.11003 29.7918 7.8079C29.5089 7.50872 29.1498 7.21805 28.7248 6.9444C28.3045 6.6752 27.8062 6.39359 27.2422 6.10792C26.7095 5.83835 26.2518 5.59541 25.883 5.38689C25.5221 5.18263 25.227 4.97374 25.0066 4.768C24.7911 4.56651 24.6333 4.35188 24.5365 4.12671C24.4395 3.90173 24.3911 3.62771 24.3911 3.31243C24.3911 2.98365 24.4629 2.69354 24.6052 2.44765C24.7489 2.20027 24.9488 1.99009 25.1973 1.82431C25.4503 1.6539 25.7503 1.52365 26.0878 1.43632C26.4298 1.34751 26.7985 1.3031 27.186 1.3031C28.228 1.3031 29.148 1.51625 29.9198 1.9368L30.0994 2.03449V0.456077L30.0245 0.426474C29.3012 0.143576 28.3935 0 27.3266 0C26.7173 0 26.1362 0.0799292 25.5988 0.236827C25.0599 0.39391 24.5818 0.621856 24.1787 0.916595C23.7741 1.21263 23.4475 1.57546 23.2086 1.99749C22.9694 2.421 22.8476 2.9052 22.8476 3.43677C22.8476 3.85732 22.9117 4.23791 23.0383 4.56799C23.1648 4.89973 23.3647 5.21371 23.6335 5.49791C23.8974 5.77932 24.2427 6.05741 24.6583 6.32569C25.0692 6.58953 25.5691 6.87354 26.144 7.16994C26.658 7.441 27.1111 7.68671 27.4905 7.90133C27.8624 8.11337 28.1733 8.3278 28.417 8.53984C28.653 8.74836 28.8294 8.97353 28.9419 9.20869C29.0527 9.4457 29.109 9.72731 29.109 10.047C29.109 10.7144 28.8763 11.2121 28.3967 11.5644C27.9139 11.9196 27.1688 12.1002 26.1831 12.1002C25.9283 12.1002 25.6566 12.0784 25.3769 12.0349C25.0973 11.9922 24.8145 11.9265 24.5365 11.8439C24.2599 11.7594 23.9849 11.6549 23.7194 11.5303C23.4553 11.4071 23.2117 11.2648 22.9931 11.1109L22.8008 10.9734V12.6497L22.857 12.6845C23.0337 12.7887 23.2648 12.8873 23.5445 12.9755C23.8178 13.0621 24.1116 13.1391 24.4145 13.2013C24.7161 13.2634 25.0191 13.313 25.316 13.3441C25.6129 13.3789 25.8737 13.3942 26.0894 13.3942C26.747 13.3942 27.3594 13.3208 27.9108 13.1761C28.4669 13.0314 28.9528 12.8118 29.3575 12.5274C29.7652 12.2382 30.0854 11.8715 30.312 11.4332C30.5384 10.9969 30.6524 10.4842 30.6524 9.91251C30.6524 9.49881 30.5806 9.11544 30.4369 8.775Z" fill="white"/>
<path d="M58.6337 0.217529H57.1465V13.1859H58.6337V0.217529Z" fill="white"/>
<path d="M87.83 10.8294C87.8179 10.8131 79.1645 0.217714 79.1645 0.217714H77.6045V13.186H79.0913C79.0913 13.186 79.0872 2.67887 79.0788 2.48774C79.0829 2.49366 87.8426 13.186 87.8426 13.186H89.319V0.217529H87.8225C87.8235 0.217529 87.8239 10.7465 87.83 10.8294Z" fill="white"/>
<path d="M72.4921 10.8294C72.4808 10.8131 63.8278 0.217714 63.8278 0.217714H62.2676V13.186H63.7542C63.7542 13.186 63.7499 2.67887 63.7408 2.48774C63.7451 2.49366 72.5055 13.186 72.5055 13.186H73.9819V0.217529H72.4854C72.4854 0.217529 72.4858 10.7465 72.4921 10.8294Z" fill="white"/>
<path d="M94.4316 7.2693H100.154V5.97471H94.4316V1.52957H101.329V0.217773H92.9443V13.1859H101.628V11.8828H94.4316V7.2693Z" fill="white"/>
<path d="M112.075 9.07239C111.925 8.80632 111.778 8.56469 111.64 8.3558C111.501 8.1458 111.357 7.95615 111.213 7.79315C111.068 7.62737 110.915 7.48527 110.761 7.36816C110.675 7.30303 110.583 7.2453 110.486 7.19368C110.865 7.09284 111.214 6.95778 111.528 6.78885C111.917 6.57849 112.251 6.31945 112.525 6.01731C112.799 5.71518 113.013 5.36438 113.16 4.97343C113.309 4.58396 113.384 4.15156 113.384 3.69104C113.384 3.11951 113.266 2.60867 113.038 2.17479C112.808 1.74092 112.501 1.37532 112.12 1.08798C111.741 0.802122 111.304 0.583057 110.82 0.438C110.339 0.292758 109.832 0.21875 109.319 0.21875H104.566V13.1869H106.053V7.64199H108.174C108.442 7.64199 108.688 7.67159 108.904 7.7308C109.117 7.78871 109.32 7.88621 109.506 8.0211C109.697 8.15912 109.884 8.3484 110.063 8.58004C110.246 8.81854 110.438 9.11772 110.636 9.47296L112.66 13.1236L112.695 13.1837H114.431L112.075 9.07239ZM106.054 1.52963H109.027C109.942 1.52963 110.649 1.73389 111.127 2.1352C111.601 2.53503 111.841 3.09324 111.841 3.79669C111.841 4.18746 111.771 4.54288 111.63 4.8539C111.491 5.16326 111.292 5.43135 111.04 5.64894C110.788 5.86985 110.479 6.04007 110.121 6.15978C109.761 6.27856 109.357 6.33925 108.923 6.33925H106.053L106.054 1.52963Z" fill="white"/>
<path d="M32.8066 0.217773L41.9995 13.1837L42.7977 12.0736L34.4016 0.217773H32.8066Z" fill="white"/>
<path d="M53.1312 0.217773L45.5409 10.9551L40.053 3.12483H38.4385L45.5591 13.1852L54.7293 0.217773H53.1312Z" fill="white"/>
<path d="M51.1573 0.217773H49.5615L44.7441 7.0519L45.5361 8.1722L51.1573 0.217773Z" fill="white"/>
</svg>
