<svg width="183" height="28" viewBox="0 0 183 28" fill="none" xmlns="http://www.w3.org/2000/svg">
<path d="M18.0989 17.9643L9.04945 8.98215L18.0989 0H9.04945L0 8.98215L4.52472 13.5237L9.04945 17.9643L13.5742 22.4049L18.0989 17.9643Z" fill="white"/>
<path d="M24.5341 13.5237L20.0094 8.98212L15.4847 4.5415L11.0605 8.98212L20.0094 17.9643L10.96 26.9464H20.0094L24.5341 22.5058L29.0589 17.9643L24.5341 13.5237Z" fill="white"/>
<path d="M40.3201 8.98217C39.0129 8.98217 37.9069 9.38586 37.1025 10.2942C36.2981 11.2025 35.8959 12.4136 35.8959 14.0283C35.8959 15.6431 36.2981 16.8542 37.0019 17.7625C37.8063 18.6708 38.8118 19.0745 40.2195 19.0745C41.1245 19.0745 42.0294 18.8726 43.1355 18.5699V19.8819C42.2305 20.1846 41.225 20.3865 40.0184 20.3865C38.2085 20.3865 36.8008 19.8819 35.7954 18.7717C34.7899 17.6616 34.2871 16.0468 34.2871 14.0283C34.2871 12.7163 34.4882 11.6062 34.991 10.6979C35.4937 9.78955 36.1975 8.98217 37.0019 8.47755C37.8063 7.97294 38.9124 7.67017 40.2195 7.67017C41.5267 7.67017 42.6327 7.87201 43.6382 8.37663L43.0349 9.5877C42.2305 9.28494 41.3256 8.98217 40.3201 8.98217Z" fill="white"/>
<path d="M52.8888 16.9549C52.8888 18.0651 52.4866 18.8725 51.6822 19.478C50.8778 20.0836 49.8723 20.3863 48.4646 20.3863C46.9563 20.3863 45.8503 20.1845 45.0459 19.7808V18.3679C45.5486 18.5697 46.1519 18.7716 46.6547 18.8725C47.1574 18.9734 47.8613 19.0743 48.4646 19.0743C49.4701 19.0743 50.1739 18.8725 50.5761 18.5697C51.0789 18.166 51.28 17.6614 51.28 17.0559C51.28 16.6522 51.1794 16.2485 50.9783 16.0466C50.7772 15.7439 50.4756 15.542 50.0734 15.2392C49.6712 15.0374 49.0679 14.7346 48.2635 14.4319C47.1574 14.0282 46.2525 13.5236 45.8503 12.918C45.3475 12.3125 45.1464 11.606 45.1464 10.6977C45.1464 9.7894 45.5486 8.98201 46.2525 8.37648C46.9563 7.77094 47.9618 7.56909 49.0679 7.56909C50.2745 7.56909 51.3805 7.77094 52.4866 8.27555L52.0844 9.48663C51.0789 9.08294 50.0734 8.88109 49.0679 8.88109C48.2635 8.88109 47.7607 9.08294 47.258 9.38571C46.8558 9.68848 46.6547 10.1931 46.6547 10.7986C46.6547 11.2023 46.7552 11.606 46.8558 11.8079C47.0569 12.1106 47.258 12.3125 47.6602 12.5143C48.0624 12.7162 48.5651 13.0189 49.3695 13.3217C50.6767 13.8263 51.5816 14.3309 52.0844 14.8356C52.6877 15.4411 52.8888 16.1476 52.8888 16.9549Z" fill="white"/>
<path d="M62.4405 16.9549C62.4405 18.0651 62.0383 18.8725 61.2339 19.478C60.4295 20.0836 59.424 20.3863 58.0163 20.3863C56.5081 20.3863 55.4021 20.1845 54.5977 19.7808V18.3679C55.1004 18.5697 55.7037 18.7716 56.2064 18.8725C56.7092 18.9734 57.413 19.0743 58.0163 19.0743C59.0218 19.0743 59.7257 18.8725 60.1279 18.5697C60.6306 18.166 60.8317 17.6614 60.8317 17.0559C60.8317 16.6522 60.7312 16.2485 60.5301 16.0466C60.329 15.7439 60.0273 15.542 59.6251 15.2392C59.2229 15.0374 58.6196 14.7346 57.8152 14.4319C56.7092 14.0282 55.8043 13.5236 55.4021 12.918C54.8993 12.3125 54.6982 11.606 54.6982 10.6977C54.6982 9.7894 55.1004 8.98201 55.8043 8.37648C56.5081 7.77094 57.5136 7.56909 58.6196 7.56909C59.8262 7.56909 60.9323 7.77094 62.0383 8.27555L61.6361 9.48663C60.6306 9.08294 59.6251 8.88109 58.6196 8.88109C57.8152 8.88109 57.3125 9.08294 56.8097 9.38571C56.4075 9.68848 56.2064 10.1931 56.2064 10.7986C56.2064 11.2023 56.307 11.606 56.4075 11.8079C56.6086 12.1106 56.8097 12.3125 57.2119 12.5143C57.6141 12.7162 58.1169 13.0189 58.9213 13.3217C60.2284 13.8263 61.1334 14.3309 61.6361 14.8356C62.1389 15.4411 62.4405 16.1476 62.4405 16.9549Z" fill="white"/>
<path d="M75.0098 13.8263C75.0098 15.8447 74.4065 17.4595 73.3005 18.5697C72.1945 19.6798 70.5857 20.2854 68.4741 20.2854H64.4521V7.87183H68.6752C70.6862 7.87183 72.1945 8.37644 73.3005 9.38567C74.4065 10.3949 75.0098 11.9087 75.0098 13.8263ZM71.5912 13.9272C71.5912 12.8171 71.3901 11.9087 70.8873 11.4041C70.4851 10.8995 69.7813 10.5967 68.8763 10.5967H67.8708V17.5604H68.5747C69.5802 17.5604 70.284 17.2577 70.7868 16.6521C71.3901 16.0466 71.5912 15.1383 71.5912 13.9272Z" fill="white"/>
<path d="M81.6456 20.4872C80.0368 20.4872 78.8303 20.0835 77.9253 19.1752C77.0204 18.3679 76.6182 17.1568 76.6182 15.542C76.6182 13.9272 77.0204 12.7162 77.8248 11.8078C78.6292 10.8995 79.8357 10.4958 81.344 10.4958C82.7517 10.4958 83.8577 10.8995 84.6621 11.606C85.4665 12.3125 85.8687 13.4226 85.8687 14.8355V16.3494H79.9363C79.9363 16.854 80.1374 17.2577 80.5396 17.6614C80.9418 17.9642 81.4445 18.166 82.0478 18.166C82.6511 18.166 83.1539 18.0651 83.6566 17.9642C84.1594 17.8632 84.6621 17.6614 85.2654 17.3586V19.7808C84.7627 20.0835 84.2599 20.1845 83.6566 20.2854C83.0533 20.3863 82.45 20.4872 81.6456 20.4872ZM81.4445 12.8171C81.0423 12.8171 80.7407 12.918 80.439 13.2208C80.1374 13.4226 80.0368 13.8263 79.9363 14.3309H82.7517C82.7517 13.8263 82.6511 13.5235 82.3495 13.2208C82.2489 12.918 81.9473 12.8171 81.4445 12.8171Z" fill="white"/>
<path d="M95.1194 17.3587C95.1194 18.3679 94.8177 19.1753 94.1139 19.6799C93.41 20.1845 92.4045 20.4873 91.0974 20.4873C90.3935 20.4873 89.7902 20.4873 89.2875 20.3864C88.7848 20.2854 88.1815 20.1845 87.6787 19.9827V17.3587C88.1815 17.5605 88.7848 17.7624 89.3881 17.9642C89.9913 18.0651 90.4941 18.1661 90.9968 18.1661C91.7007 18.1661 92.1029 17.9642 92.1029 17.6614C92.1029 17.4596 92.0023 17.3587 91.8012 17.2578C91.6001 17.1568 90.9968 16.8541 90.0919 16.4504C89.187 16.0467 88.5837 15.643 88.282 15.2393C87.9804 14.7347 87.7793 14.2301 87.7793 13.5236C87.7793 12.6153 88.0809 11.9088 88.7848 11.4042C89.4886 10.8996 90.3935 10.6978 91.7007 10.6978C92.304 10.6978 92.9073 10.7987 93.5106 10.8996C94.1139 11.0005 94.6166 11.2024 95.2199 11.5051L94.315 13.6245C93.9128 13.4227 93.41 13.2208 92.9073 13.1199C92.4045 13.019 92.0023 12.9181 91.7007 12.9181C91.1979 12.9181 90.8963 13.019 90.8963 13.3218C90.8963 13.5236 90.9968 13.6245 91.1979 13.7254C91.399 13.8264 91.9018 14.0282 92.8067 14.4319C93.5106 14.7347 94.0133 14.9365 94.315 15.2393C94.6166 15.5421 94.9183 15.8448 95.0188 16.1476C95.0188 16.3494 95.1194 16.8541 95.1194 17.3587Z" fill="white"/>
<path d="M96.9297 8.27557C96.9297 7.77095 97.0302 7.36726 97.3319 7.16541C97.6335 6.96356 98.0357 6.76172 98.639 6.76172C99.2423 6.76172 99.7451 6.86264 99.9461 7.16541C100.248 7.36726 100.348 7.77095 100.348 8.27557C100.348 9.2848 99.745 9.68849 98.5385 9.68849C97.4324 9.78941 96.9297 9.2848 96.9297 8.27557ZM100.248 20.2854H96.9297V10.6977H100.248V20.2854Z" fill="white"/>
<path d="M111.61 10.6977V12.3125L110.303 12.8171C110.504 13.1199 110.604 13.5235 110.604 13.9272C110.604 14.9365 110.202 15.7439 109.498 16.3494C108.794 16.9549 107.688 17.1568 106.281 17.1568C105.878 17.1568 105.677 17.1568 105.476 17.0559C105.376 17.1568 105.376 17.3586 105.376 17.4595C105.376 17.6614 105.476 17.7623 105.778 17.8632C106.079 17.9642 106.381 17.9642 106.783 17.9642H108.392C110.504 17.9642 111.61 18.8725 111.61 20.6891C111.61 21.9002 111.107 22.8085 110.101 23.414C109.096 24.0195 107.688 24.4232 105.878 24.4232C104.571 24.4232 103.465 24.2214 102.761 23.7168C102.057 23.3131 101.655 22.6066 101.655 21.7992C101.655 20.6891 102.359 19.8817 103.767 19.5789C103.465 19.478 103.264 19.2762 102.962 18.9734C102.761 18.6706 102.661 18.4688 102.661 18.166C102.661 17.8632 102.761 17.5605 102.862 17.3586C103.063 17.1568 103.365 16.854 103.867 16.5512C103.365 16.3494 102.962 15.9457 102.661 15.542C102.359 15.0374 102.259 14.5328 102.259 13.8263C102.259 12.8171 102.661 12.0097 103.365 11.4042C104.068 10.7986 105.074 10.4958 106.381 10.4958C106.582 10.4958 106.884 10.4958 107.286 10.5968C107.688 10.5968 107.99 10.6977 108.191 10.6977H111.61ZM104.37 21.4965C104.37 21.7992 104.471 22.0011 104.772 22.2029C105.074 22.4048 105.476 22.4048 105.979 22.4048C106.783 22.4048 107.387 22.3039 107.889 22.102C108.392 21.9002 108.593 21.5974 108.593 21.2946C108.593 20.9919 108.493 20.8909 108.191 20.79C107.889 20.6891 107.487 20.5882 106.884 20.5882H105.577C105.175 20.5882 104.973 20.6891 104.672 20.79C104.471 20.9919 104.37 21.1937 104.37 21.4965ZM105.376 13.8263C105.376 14.8355 105.677 15.3402 106.381 15.3402C106.683 15.3402 106.984 15.2392 107.085 14.9365C107.286 14.7346 107.387 14.3309 107.387 13.8263C107.387 12.8171 107.085 12.3125 106.381 12.3125C105.778 12.3125 105.376 12.8171 105.376 13.8263Z" fill="white"/>
<path d="M119.051 20.2854V15.0374C119.051 14.4319 118.95 13.9273 118.749 13.6245C118.548 13.3218 118.246 13.1199 117.844 13.1199C117.241 13.1199 116.838 13.3218 116.637 13.8264C116.436 14.2301 116.235 15.0374 116.235 16.1476V20.3864H112.917V10.7987H115.431L115.833 12.0098H116.034C116.336 11.6061 116.738 11.2024 117.241 11.0005C117.743 10.7987 118.347 10.6978 118.95 10.6978C120.056 10.6978 120.86 11.0005 121.464 11.6061C122.067 12.2116 122.369 13.1199 122.369 14.2301V20.4873H119.051V20.2854Z" fill="white"/>
<path d="M132.926 20.2854L131.418 16.3494H126.491L124.983 20.2854H123.575L128.502 7.87183H129.709L134.535 20.2854H132.926ZM130.915 15.0374L129.508 11.2023C129.307 10.6977 129.105 10.0921 128.904 9.38567C128.804 9.89029 128.603 10.4958 128.402 11.2023L126.994 15.0374H130.915Z" fill="white"/>
<path d="M143.484 20.2853L141.775 14.8355C141.674 14.5327 141.473 13.7253 141.171 12.6152H141.071C140.87 13.6244 140.669 14.3309 140.468 14.9364L138.758 20.3862H137.149L134.636 11.1013H136.144C136.747 13.4225 137.149 15.2392 137.552 16.4502C137.853 17.6613 138.054 18.4687 138.054 18.8724H138.155C138.256 18.5696 138.356 18.1659 138.457 17.6613C138.557 17.1567 138.758 16.753 138.859 16.4502L140.568 11.1013H142.076L143.685 16.4502C143.987 17.4595 144.188 18.2669 144.288 18.8724H144.389C144.389 18.6705 144.49 18.3678 144.59 17.9641C144.691 17.5604 145.294 15.2392 146.299 11.1013H147.707L145.193 20.3862H143.484V20.2853Z" fill="white"/>
<path d="M155.047 20.2854L154.746 18.9734H154.645C154.143 19.5789 153.74 19.9826 153.238 20.1844C152.735 20.3863 152.232 20.4872 151.528 20.4872C150.623 20.4872 149.919 20.2854 149.417 19.7807C148.914 19.2761 148.612 18.6706 148.612 17.7623C148.612 15.8447 150.121 14.9364 153.137 14.8355L154.746 14.7346V14.129C154.746 13.4226 154.545 12.817 154.243 12.5143C153.941 12.2115 153.439 12.0097 152.735 12.0097C151.93 12.0097 151.126 12.2115 150.121 12.7161L149.718 11.606C150.221 11.4041 150.623 11.2023 151.227 11.0004C151.729 10.8995 152.333 10.7986 152.835 10.7986C153.941 10.7986 154.746 11.0004 155.249 11.505C155.751 12.0097 156.053 12.817 156.053 13.8263V20.1844H155.047V20.2854ZM151.83 19.2761C152.735 19.2761 153.338 19.0743 153.841 18.5697C154.344 18.065 154.545 17.4595 154.545 16.5512V15.7438L153.137 15.8447C152.031 15.8447 151.227 16.0466 150.724 16.3494C150.221 16.6521 150.02 17.1567 150.02 17.7623C150.02 18.2669 150.221 18.6706 150.523 18.8724C150.925 19.1752 151.327 19.2761 151.83 19.2761Z" fill="white"/>
<path d="M163.192 10.7986C163.594 10.7986 163.996 10.7986 164.298 10.8995L164.097 12.2115C163.695 12.1106 163.393 12.1106 163.091 12.1106C162.387 12.1106 161.684 12.4134 161.181 13.0189C160.678 13.6244 160.376 14.4318 160.376 15.3401V20.2854H158.969V11.0004H160.075L160.276 12.7161H160.376C160.678 12.1106 161.181 11.606 161.583 11.3032C162.086 11.0004 162.589 10.7986 163.192 10.7986Z" fill="white"/>
<path d="M172.341 19.0743C171.637 19.9826 170.632 20.4872 169.325 20.4872C168.118 20.4872 167.213 20.0835 166.509 19.2761C165.806 18.4688 165.504 17.2577 165.504 15.7438C165.504 14.23 165.806 13.0189 166.509 12.2115C167.213 11.4041 168.118 10.8995 169.325 10.8995C170.531 10.8995 171.537 11.4041 172.241 12.3125H172.341L172.241 11.606V11.0005V7.06445H173.648V20.2854H172.542L172.341 19.0743ZM169.526 19.2761C170.531 19.2761 171.135 18.9734 171.637 18.4688C172.04 17.9641 172.241 17.0558 172.241 15.9457V15.6429C172.241 14.3309 172.04 13.4226 171.537 12.8171C171.135 12.2115 170.431 12.0097 169.425 12.0097C168.621 12.0097 168.018 12.3125 167.515 13.0189C167.113 13.6245 166.811 14.5328 166.811 15.7438C166.811 16.9549 167.012 17.8632 167.414 18.4688C168.018 18.9734 168.621 19.2761 169.526 19.2761Z" fill="white"/>
<path d="M182.597 17.7623C182.597 18.6706 182.296 19.2761 181.592 19.7807C180.988 20.2854 180.083 20.4872 178.877 20.4872C177.67 20.4872 176.665 20.2854 175.961 19.8817V18.5697C176.363 18.7715 176.866 18.9734 177.369 19.0743C177.871 19.1752 178.374 19.2761 178.877 19.2761C179.581 19.2761 180.184 19.1752 180.586 18.9734C180.988 18.7715 181.189 18.3678 181.189 17.8632C181.189 17.4595 180.988 17.1567 180.687 16.9549C180.385 16.6521 179.782 16.3494 178.877 16.0466C177.972 15.7438 177.369 15.441 177.067 15.2392C176.665 15.0374 176.464 14.7346 176.263 14.4318C176.061 14.129 175.961 13.7254 175.961 13.3217C175.961 12.6152 176.263 12.0097 176.866 11.505C177.469 11.0004 178.274 10.7986 179.38 10.7986C180.385 10.7986 181.391 11.0004 182.296 11.4041L181.793 12.5143C180.888 12.1106 179.983 11.9087 179.279 11.9087C178.575 11.9087 178.072 12.0097 177.771 12.2115C177.469 12.4134 177.268 12.7161 177.268 13.1198C177.268 13.3217 177.369 13.6244 177.469 13.7254C177.57 13.9272 177.771 14.0281 178.072 14.23C178.374 14.4318 178.877 14.6337 179.681 14.9364C180.787 15.3401 181.491 15.7438 181.893 16.1475C182.396 16.6521 182.597 17.1567 182.597 17.7623Z" fill="white"/>
</svg>
