<svg width="16" height="10" viewBox="0 0 16 10" fill="none" xmlns="http://www.w3.org/2000/svg">
<path d="M14.4491 1.41513H10.4401V0.414864H14.4495L14.4491 1.41513ZM7.77125 5.51687C8.02992 5.91933 8.15919 6.40799 8.15919 6.98169C8.15919 7.57497 8.01344 8.1072 7.71693 8.57733C7.5283 8.88843 7.2941 9.15122 7.01269 9.36278C6.69576 9.60744 6.32053 9.77521 5.88918 9.86485C5.45645 9.95464 4.98808 10 4.48355 10H0V0H4.80793C6.01982 0.0198035 6.879 0.372492 7.38635 1.06513C7.69078 1.48993 7.84163 1.99966 7.84163 2.59216C7.84163 3.20353 7.68896 3.69271 7.38155 4.06438C7.21055 4.27276 6.95793 4.46232 6.62352 4.63341C7.13005 4.81968 7.51439 5.11299 7.77125 5.51687ZM2.29598 3.9425H4.40261C4.83553 3.9425 5.18549 3.85984 5.45503 3.69462C5.72439 3.52965 5.85879 3.23641 5.85879 2.81538C5.85879 2.35022 5.68083 2.04148 5.32406 1.89287C5.01739 1.78964 4.62502 1.73646 4.14891 1.73646H2.29598V3.9425ZM6.06163 6.83884C6.06163 6.3194 5.85027 5.96028 5.4284 5.76759C5.19249 5.65807 4.85963 5.6021 4.43285 5.5981H2.29598V8.26305H4.39978C4.83199 8.26305 5.16652 8.20622 5.40794 8.08766C5.84331 7.86967 6.06163 7.45481 6.06163 6.83884ZM15.9366 5.21201C15.985 5.53918 16.007 6.01386 15.9981 6.63431H10.8059C10.8346 7.35418 11.082 7.8576 11.5512 8.14569C11.8342 8.32635 12.1773 8.41457 12.579 8.41457C13.0026 8.41457 13.3479 8.30699 13.6137 8.08586C13.7585 7.96865 13.8863 7.8032 13.9967 7.59444H15.8998C15.8499 8.01962 15.6208 8.45085 15.209 8.88906C14.571 9.58558 13.6762 9.93484 12.5271 9.93484C11.5778 9.93484 10.7411 9.64029 10.015 9.05332C9.29118 8.4643 8.92768 7.50902 8.92768 6.18387C8.92768 4.94122 9.25402 3.9901 9.9089 3.32806C10.5662 2.6648 11.4145 2.33468 12.4601 2.33468C13.0799 2.33468 13.6386 2.44595 14.137 2.66966C14.6338 2.89358 15.0445 3.24601 15.3679 3.73037C15.6606 4.15693 15.8488 4.65015 15.9366 5.21201ZM14.0634 5.39861C14.0285 4.90083 13.863 4.52408 13.5651 4.2666C13.2697 4.00841 12.9005 3.87879 12.4601 3.87879C11.9808 3.87879 11.6106 4.01734 11.3476 4.28965C11.0829 4.56141 10.9181 4.93087 10.8506 5.39865L14.0634 5.39861Z" fill="white"/>
</svg>
