<svg width="116" height="18" viewBox="0 0 116 18" fill="none" xmlns="http://www.w3.org/2000/svg">
<g clip-path="url(#clip0)">
<path d="M0.518444 8.45149C0.932578 6.37926 2.79618 4.9165 5.44663 4.9165C8.51122 4.9165 10.8718 6.1761 10.8718 10.2393V17.7969H8.26274L7.93143 16.1716C7.02034 17.2686 5.81935 18 3.95575 18C1.76084 18 0.0214844 16.6592 0.0214844 14.14C0.0214844 11.6208 2.29922 9.99551 5.52946 9.99551H7.68295V9.42666C7.68295 8.00454 6.6062 7.55759 5.40522 7.55759C4.49412 7.55759 3.58303 7.84201 3.1689 9.02034L0.518444 8.45149ZM4.70119 15.3589C6.15066 15.3589 7.68295 14.3838 7.68295 12.7585V12.5147H5.57087C4.20423 12.4741 3.37596 13.0023 3.37596 14.0993C3.37596 14.7088 3.83151 15.3589 4.70119 15.3589Z" fill="white"/>
<path d="M62.5556 8.45149C62.9697 6.37926 64.8333 4.9165 67.4837 4.9165C70.5483 4.9165 72.9089 6.1761 72.9089 10.2393V17.7969H70.2998L69.9685 16.1716C69.0574 17.2686 67.8565 18 65.9929 18C63.798 18 62.0586 16.6592 62.0586 14.14C62.0586 11.6208 64.3363 9.99551 67.5666 9.99551H69.7201V9.42666C69.7201 8.00454 68.6433 7.55759 67.4423 7.55759C66.5312 7.55759 65.6201 7.84201 65.206 9.02034L62.5556 8.45149ZM66.7383 15.3589C68.1878 15.3589 69.7201 14.3838 69.7201 12.7585V12.5147H67.608C66.2413 12.5147 65.4131 13.0023 65.4131 14.14C65.4131 14.7088 65.8686 15.3589 66.7383 15.3589Z" fill="white"/>
<path d="M75.8076 17.8375V5.11966H78.9964V7.1919C79.9075 5.68851 81.357 4.9165 82.8065 4.9165C83.3862 4.9165 83.8418 4.99777 84.3802 5.1603L83.8004 8.04517C83.4277 7.80138 83.0135 7.67948 82.4752 7.67948C80.6116 7.67948 78.9964 9.18287 78.9964 13.2867V17.7969L75.8076 17.8375Z" fill="white"/>
<path d="M91.1717 4.91648C92.4969 4.91648 93.7393 5.56659 94.3191 6.25734V0H97.5079V17.8375H94.3191V16.5372C93.9464 17.1874 92.7868 18.0406 91.1717 18.0406C87.2789 18.0406 85.291 15.3995 85.291 11.4989C85.291 7.59819 87.2789 4.91648 91.1717 4.91648ZM91.6273 15.3589C93.2838 15.3589 94.609 14.0181 94.609 11.4989C94.609 8.97968 93.2838 7.63883 91.6273 7.63883C89.9707 7.63883 88.6455 8.97968 88.6455 11.4989C88.6455 14.0181 89.9707 15.3589 91.6273 15.3589Z" fill="white"/>
<path d="M109.021 6.94797L107.116 8.65451C106.536 7.8825 105.666 7.55745 104.962 7.55745C104.341 7.55745 103.761 7.92314 103.761 8.61388C103.761 9.18273 104.217 9.58905 105.004 9.83284C106.784 10.483 109.683 11.0112 109.683 13.7335C109.683 16.0495 107.903 17.9593 105.086 17.9593C102.395 17.9593 100.572 16.0902 99.9512 14.5462L102.477 13.2053C102.933 14.4243 103.803 15.3182 105.086 15.3182C106.08 15.3182 106.702 14.8712 106.702 13.9367C106.702 12.8802 105.045 12.6365 103.471 11.9863C102.063 11.4175 100.862 10.5236 100.862 8.57325C100.862 6.62291 102.477 4.87573 105.004 4.87573C106.702 4.87573 108.234 5.72901 109.021 6.94797Z" fill="white"/>
<path d="M42.6774 5.11963L40.3996 13.8555L38.2047 5.11963H35.223L33.0695 13.8555L31.2473 8.77651L31.0402 9.38599L30.0049 12.6366L31.6614 17.8375H34.4775L36.7138 9.62979L38.9502 17.8375H41.7663L45.9076 5.11963H42.6774Z" fill="white"/>
<path d="M58.083 5.11963L55.7639 13.8555L53.569 5.11963H50.5872L48.4337 13.8555L46.6115 8.77651L46.4045 9.38599L45.3691 12.6366L47.0257 17.8375H49.8418L52.0781 9.62979L54.3144 17.8375H57.1305L61.2719 5.11963H58.083Z" fill="white"/>
<path d="M30.5428 5.11963L26.4015 17.7968H23.5854L21.349 9.58915L19.1127 17.8375H16.2966L12.1553 5.16026H15.3855L17.7047 13.8555L19.8996 5.16026H22.8399L25.0348 13.8555L27.354 5.16026L30.5428 5.11963Z" fill="white"/>
<path d="M113.825 13.7336C115.068 13.7336 115.979 14.6275 115.979 15.8465C115.979 17.0655 115.068 17.9594 113.825 17.9594C112.583 17.9594 111.672 17.0655 111.672 15.8465C111.672 14.6275 112.624 13.7336 113.825 13.7336Z" fill="white"/>
</g>
<defs>
<clipPath id="clip0">
<rect width="116" height="18" fill="white"/>
</clipPath>
</defs>
</svg>
