<svg width="130" height="47" viewBox="0 0 130 47" fill="none" xmlns="http://www.w3.org/2000/svg">
<path d="M27.9318 32.3775C27.9318 34.3016 27.5615 36.1032 26.8209 37.7825C26.1155 39.4617 25.128 40.931 23.8584 42.1904C22.5888 43.4498 21.1075 44.4469 19.4147 45.1815C17.7219 45.8812 15.9056 46.231 13.9659 46.231C12.0262 46.231 10.2099 45.8812 8.51708 45.1815C6.82424 44.4469 5.34301 43.4498 4.07338 42.1904C2.80376 40.931 1.79864 39.4617 1.05802 37.7825C0.352674 36.1032 0 34.3016 0 32.3775C0 30.4534 0.352674 28.6517 1.05802 26.9725C1.79864 25.2933 2.80376 23.8239 4.07338 22.5645C5.34301 21.3051 6.82424 20.3256 8.51708 19.6259C10.2099 18.8912 12.0262 18.5239 13.9659 18.5239C15.5882 18.5239 17.1047 18.7863 18.5154 19.311C19.9614 19.8008 21.2839 20.5005 22.483 21.4101V0H27.9318V32.3775ZM13.9659 40.826C15.1297 40.826 16.223 40.6161 17.2458 40.1963C18.3038 39.7415 19.2207 39.1293 19.9966 38.3597C20.7725 37.59 21.372 36.698 21.7953 35.6834C22.2537 34.6339 22.483 33.5319 22.483 32.3775V32.325C22.483 31.1705 22.2537 30.086 21.7953 29.0715C21.372 28.057 20.7725 27.1649 19.9966 26.3952C19.2207 25.6256 18.3038 25.0309 17.2458 24.6111C16.223 24.1563 15.1297 23.9289 13.9659 23.9289C12.8021 23.9289 11.6911 24.1563 10.6331 24.6111C9.61037 25.0309 8.71105 25.6256 7.93517 26.3952C7.15928 27.1649 6.5421 28.0745 6.08363 29.124C5.62515 30.1385 5.39591 31.223 5.39591 32.3775C5.39591 33.5319 5.62515 34.6339 6.08363 35.6834C6.5421 36.698 7.15928 37.59 7.93517 38.3597C8.71105 39.1293 9.61037 39.7415 10.6331 40.1963C11.6911 40.6161 12.8021 40.826 13.9659 40.826Z" fill="white"/>
<path d="M44.5188 34.1616C44.7304 35.1062 45.083 35.9983 45.5768 36.8379C46.1058 37.6425 46.7406 38.3422 47.4812 38.9369C48.2218 39.5316 49.0506 40.0039 49.9676 40.3538C50.8845 40.6686 51.8544 40.826 52.8771 40.826C54.1115 40.826 55.2577 40.5812 56.3157 40.0914C57.409 39.6016 58.3612 38.9194 59.1724 38.0448H65.5734C65.3618 38.5696 65.0973 39.0769 64.7799 39.5666C64.4977 40.0214 64.1803 40.4762 63.8277 40.931C62.558 42.5402 60.971 43.8346 59.0666 44.8142C57.1621 45.7587 55.099 46.231 52.8771 46.231C50.9374 46.231 49.1212 45.8812 47.4283 45.1815C45.7355 44.4469 44.2543 43.4498 42.9846 42.1904C41.715 40.931 40.7099 39.4617 39.9693 37.7825C39.2639 36.1032 38.9112 34.3016 38.9112 32.3775C38.9112 30.4534 39.2639 28.6517 39.9693 26.9725C40.7099 25.2933 41.715 23.8239 42.9846 22.5645C44.2543 21.3051 45.7355 20.3256 47.4283 19.6259C49.1212 18.8912 50.9374 18.5239 52.8771 18.5239C55.099 18.5239 57.1621 19.0137 59.0666 19.9932C60.971 20.9378 62.558 22.2322 63.8277 23.8764C64.9915 25.2758 65.8379 26.92 66.3669 28.8091C66.6843 29.9286 66.843 31.118 66.843 32.3775C66.843 33.0072 66.7901 33.6019 66.6843 34.1616H44.5188ZM52.8771 23.9289C51.149 23.9289 49.5973 24.3837 48.2218 25.2933C46.8817 26.1678 45.8589 27.3398 45.1536 28.8091H60.6007C60.4244 28.5293 60.248 28.2494 60.0717 27.9695C59.9306 27.6896 59.7719 27.4273 59.5956 27.1824C58.7844 26.1678 57.7969 25.3807 56.6331 24.821C55.4693 24.2263 54.2173 23.9289 52.8771 23.9289Z" fill="white"/>
<path d="M102.051 18.5764V34.2666C102.051 36.3656 101.557 38.2897 100.57 40.0389C99.6177 41.7881 98.3128 43.2049 96.6553 44.2894C95.6678 44.9191 94.6098 45.4089 93.4812 45.7587C92.3527 46.1086 91.1712 46.2835 89.9368 46.2835C88.7025 46.2835 87.521 46.1086 86.3925 45.7587C85.2639 45.4089 84.2059 44.9191 83.2184 44.2894C81.5961 43.2049 80.2912 41.7881 79.3037 40.0389C78.3162 38.2897 77.8225 36.3656 77.8225 34.2666V18.5764H83.2184V34.2666C83.2184 35.1762 83.3947 36.0333 83.7474 36.8379C84.1001 37.6425 84.5762 38.3422 85.1757 38.9369C85.7753 39.5316 86.4806 40.0039 87.2918 40.3538C88.1382 40.7036 89.0199 40.8785 89.9368 40.8785C90.8538 40.8785 91.7178 40.7036 92.529 40.3538C93.3401 40.0039 94.0455 39.5316 94.645 38.9369C95.2798 38.3422 95.7736 37.6425 96.1263 36.8379C96.4789 36.0333 96.6553 35.1762 96.6553 34.2666V18.5764H102.051Z" fill="white"/>
<path d="M128.46 33.3745C128.954 34.0742 129.342 34.8438 129.624 35.6834C129.906 36.4881 130.029 37.3452 129.994 38.2547C129.959 39.4092 129.694 40.4762 129.201 41.4557C128.707 42.4353 128.054 43.2924 127.243 44.0271C126.432 44.7617 125.48 45.3389 124.387 45.7587C123.293 46.1436 122.147 46.3185 120.948 46.2835C119.255 46.2135 117.721 45.7762 116.346 44.9716C115.005 44.167 113.983 43.1 113.277 41.7706L117.827 38.6221C118.003 39.2518 118.391 39.794 118.991 40.2488C119.59 40.6686 120.296 40.8785 121.107 40.8785C122.024 40.9135 122.817 40.6686 123.487 40.1439C124.193 39.5841 124.545 38.9019 124.545 38.0973C124.545 37.8524 124.528 37.6775 124.492 37.5726V37.4676C124.457 37.3976 124.44 37.3452 124.44 37.3102C124.44 37.2402 124.422 37.1702 124.387 37.1003C124.14 36.5055 123.681 36.0158 123.011 35.631C122.905 35.561 122.747 35.491 122.535 35.4211L122.588 35.3686C122.094 35.0887 121.548 34.8263 120.948 34.5814C120.348 34.3016 119.731 34.0217 119.096 33.7418C118.497 33.427 117.897 33.1121 117.298 32.7973C116.698 32.4474 116.134 32.0451 115.605 31.5903V31.5379L115.446 31.3804C114.706 30.6808 114.124 29.8761 113.701 28.9665C113.277 28.022 113.083 27.025 113.119 25.9754C113.154 24.9259 113.401 23.9464 113.859 23.0368C114.318 22.1272 114.917 21.3401 115.658 20.6754C116.434 20.0107 117.333 19.486 118.356 19.1011C119.379 18.7163 120.472 18.5414 121.636 18.5764C123.152 18.6463 124.51 19.0137 125.709 19.6784C126.943 20.3431 127.913 21.2351 128.619 22.3546L124.175 25.3982C123.963 25.0134 123.611 24.681 123.117 24.4012C122.659 24.1213 122.129 23.9814 121.53 23.9814C120.719 23.9464 120.013 24.1388 119.414 24.5586C118.85 24.9784 118.567 25.4857 118.567 26.0804C118.567 26.2553 118.585 26.3778 118.62 26.4477C118.691 26.8325 118.867 27.1649 119.149 27.4448C119.432 27.7246 119.784 27.952 120.207 28.1269C120.878 28.5118 121.636 28.9141 122.482 29.3339C123.364 29.7187 124.246 30.156 125.127 30.6458C125.762 30.9256 126.397 31.328 127.032 31.8527L127.296 32.1151C127.649 32.4299 128.037 32.8497 128.46 33.3745Z" fill="white"/>
</svg>
