<svg width="30" height="31" fill="none" xmlns="http://www.w3.org/2000/svg"><path d="M26.76 6.443l-2.79-2.79c-.36-.36-.93-.36-1.26 0l-12.15 12.12c-.06.06-.12.15-.18.24l-2.46 5.25c-.15.33-.09.75.18 1.02.18.18.39.27.63.27.12 0 .27-.03.39-.09l5.25-2.46c.09-.03.18-.09.24-.18l12.15-12.15c.18-.18.27-.39.27-.63s-.09-.45-.27-.6zm-13.32 12.03l-2.85 1.35 1.35-2.85 8.67-8.67 1.53 1.53-8.7 8.64zm9.93-9.93l-1.53-1.53 1.47-1.47 1.53 1.53-1.47 1.47z" fill="#FCC133"/><path d="M24.24 13.703c-.51 0-.9.39-.9.9v9.93H5.58V6.683h10.98c.51 0 .9-.39.9-.9s-.39-.9-.9-.9H5.58c-.99 0-1.8.81-1.8 1.8v17.85c0 .99.81 1.8 1.8 1.8h17.76c.99 0 1.8-.81 1.8-1.8v-9.93c0-.48-.42-.9-.9-.9z" fill="#FCC133"/></svg>