<svg width="30" height="30" fill="none" xmlns="http://www.w3.org/2000/svg"><path d="M15 4.8a8.39 8.39 0 0 0-5.944 2.456C7.84 8.474 7.101 9.984 6.788 11.56 3.61 12.176 1.2 14.951 1.2 18.3c0 3.8 3.1 6.9 6.9 6.9h14.7c3.309 0 6-2.691 6-6 0-3.122-2.405-5.664-5.456-5.944.014-2.171-.757-4.348-2.41-6A8.372 8.372 0 0 0 15 4.8zm0 1.8c1.692 0 3.367.629 4.66 1.922a6.604 6.604 0 0 1 1.893 5.466.9.9 0 0 0 .89 1.012h.357c2.343 0 4.2 1.858 4.2 4.2s-1.857 4.2-4.2 4.2H8.1A5.087 5.087 0 0 1 3 18.3a5.09 5.09 0 0 1 4.631-5.081.9.9 0 0 0 .807-.788 6.588 6.588 0 0 1 1.893-3.91 6.56 6.56 0 0 1 4.67-1.921zm0 5.4a.9.9 0 0 0-.9.9v5.766l-1.79-1.632c-.35-.316-.957-.29-1.275.057a.908.908 0 0 0 .056 1.275l3.3 3c.15.137.31.234.61.234s.43-.071.609-.234l3.3-3c.346-.32.41-.928.056-1.275-.337-.33-.926-.373-1.275-.057l-1.79 1.632V12.9a.9.9 0 0 0-.9-.9z" fill="#FCC133"/></svg>